<svg width="40" height="42" viewBox="0 0 40 42" fill="none" xmlns="http://www.w3.org/2000/svg">
<path d="M38.1888 17.0949C39.021 16.9219 39.561 16.1048 39.3261 15.2879C38.1865 11.3239 35.8742 7.7826 32.6764 5.14011C29.0819 2.16983 24.583 0.512344 19.9206 0.440659C15.2582 0.368974 10.7105 1.88736 7.02636 4.74574C3.74883 7.28867 1.32876 10.7572 0.0677569 14.6843C-0.192103 15.4936 0.322554 16.3269 1.14902 16.5254C1.97548 16.7239 2.79983 16.2119 3.07038 15.4061C4.16089 12.1583 6.18844 9.29165 8.91318 7.17761C12.0447 4.74799 15.9102 3.45736 19.8733 3.51829C23.8363 3.57922 27.6604 4.98809 30.7157 7.51283C33.3741 9.70963 35.3126 12.6373 36.3027 15.917C36.5484 16.7307 37.3566 17.2679 38.1888 17.0949Z" fill="#B9DED6"/>
<path d="M29.6863 37.7993C29.9393 38.2221 30.4884 38.3613 30.8998 38.0901C33.4053 36.4382 35.5212 34.2547 37.0946 31.6908C38.668 29.1268 39.6565 26.2515 39.9945 23.2696C40.05 22.78 39.6772 22.3534 39.1857 22.3193L37.8951 22.2296C37.4036 22.1954 36.9798 22.5666 36.9205 23.0558C36.6192 25.5429 35.7852 27.9396 34.4712 30.0809C33.1572 32.2221 31.3981 34.0512 29.3171 35.4462C28.9078 35.7205 28.7688 36.2665 29.0218 36.6893L29.6863 37.7993Z" fill="#B9DED6"/>
<path d="M5.72616 34.8372C5.37775 35.1856 5.37648 35.7521 5.7397 36.085C8.14335 38.2883 11.041 39.89 14.1945 40.752C17.348 41.614 20.6575 41.709 23.8477 41.0348C24.3298 40.933 24.6169 40.4446 24.4941 39.9674L24.1719 38.7145C24.0492 38.2373 23.5631 37.9523 23.0803 38.0505C20.4091 38.5936 17.6434 38.5039 15.0061 37.783C12.3688 37.062 9.94197 35.7324 7.91851 33.906C7.55273 33.5759 6.98933 33.574 6.64091 33.9224L5.72616 34.8372Z" fill="#B9DED6"/>
<path d="M25.8856 14.794C25.0037 14.794 24.1579 14.4437 23.5343 13.8201L21.8716 12.1574C20.573 10.8588 18.4675 10.8588 17.1689 12.1574L15.5062 13.8201C14.8826 14.4437 14.0368 14.794 13.1549 14.794H7.76349C5.92697 14.794 4.43818 16.2828 4.43818 18.1193V24.77C4.43818 26.6065 5.92697 28.0953 7.76349 28.0953H12.9186C13.8005 28.0953 14.6463 28.4456 15.2699 29.0693L17.1689 30.9682C18.4675 32.2669 20.573 32.2669 21.8716 30.9682L23.7706 29.0693C24.3942 28.4456 25.24 28.0953 26.1219 28.0953H31.0407C32.8772 28.0953 34.366 26.6065 34.366 24.77V18.1193C34.366 16.2828 32.8772 14.794 31.0407 14.794H25.8856Z" fill="#B9DED6"/>
</svg>
