<svg width="19" height="19" viewBox="0 0 19 19" fill="none" xmlns="http://www.w3.org/2000/svg">
<path d="M0.661165 18.3389C-0.119884 17.5578 -0.119884 16.2915 0.661165 15.5105L15.5104 0.661226C16.2915 -0.119822 17.5578 -0.119822 18.3388 0.661226C19.1199 1.44227 19.1199 2.70861 18.3388 3.48965L3.48959 18.3389C2.70854 19.1199 1.44221 19.1199 0.661165 18.3389Z" fill="#B9DED6"/>
<path d="M0.661165 0.661226C1.44221 -0.119823 2.70854 -0.119823 3.48959 0.661226L18.3388 15.5105C19.1199 16.2915 19.1199 17.5578 18.3388 18.3389C17.5578 19.1199 16.2915 19.1199 15.5104 18.3389L0.661165 3.48965C-0.119884 2.7086 -0.119883 1.44227 0.661165 0.661226Z" fill="#B9DED6"/>
</svg>
