<svg width="19" height="19" viewBox="0 0 19 19" fill="none" xmlns="http://www.w3.org/2000/svg">
<path d="M0.585786 18.2635C-0.195262 17.4824 -0.195262 16.2161 0.585786 15.435L15.435 0.585787C16.2161 -0.195261 17.4824 -0.195262 18.2635 0.585787C19.0445 1.36684 19.0445 2.63317 18.2635 3.41421L3.41421 18.2635C2.63316 19.0445 1.36683 19.0445 0.585786 18.2635Z" fill="#F44336"/>
<path d="M0.585787 0.585786C1.36684 -0.195262 2.63317 -0.195262 3.41421 0.585786L18.2635 15.435C19.0445 16.2161 19.0445 17.4824 18.2635 18.2635C17.4824 19.0445 16.2161 19.0445 15.435 18.2635L0.585786 3.41421C-0.195262 2.63316 -0.195262 1.36683 0.585787 0.585786Z" fill="#F44336"/>
</svg>
