<svg width="24" height="24" viewBox="0 0 24 24" fill="none" xmlns="http://www.w3.org/2000/svg">
<g clip-path="url(#clip0_1036_33)">
<path d="M20.4853 3.51473C18.2188 1.24823 15.2053 0 12 0C8.79469 0 5.78119 1.24823 3.51473 3.51473C1.24823 5.78119 0 8.79469 0 12C0 15.2053 1.24823 18.2188 3.51473 20.4853C5.78119 22.7518 8.79469 24 12 24C15.0243 24 17.9133 22.8714 20.1347 20.8221L19.6514 20.2981C17.562 22.2256 14.8446 23.2871 12 23.2871C8.98514 23.2871 6.15066 22.1131 4.01878 19.9812C1.88691 17.8493 0.712875 15.0149 0.712875 12C0.712875 8.98514 1.88691 6.15066 4.01878 4.01883C6.15066 1.88691 8.98514 0.712875 12 0.712875C15.0149 0.712875 17.8493 1.88691 19.9812 4.01883C22.1131 6.15066 23.2871 8.98514 23.2871 12C23.2871 14.8403 22.2284 17.5546 20.3059 19.6427L20.8304 20.1256C22.8743 17.9055 24 15.0197 24 12C24 8.79469 22.7518 5.78119 20.4853 3.51473Z" fill="#F44336"/>
<path d="M13.2571 12.3564H16.2297V11.6436H13.2571C13.1812 11.3763 13.0224 11.1438 12.8101 10.9756L14.4936 6.91148L13.835 6.63867L12.1518 10.7022C12.1019 10.6964 12.0514 10.6931 12 10.6931C11.2794 10.6931 10.6931 11.2794 10.6931 12C10.6931 12.7206 11.2794 13.3069 12 13.3069C12.597 13.3069 13.1015 12.9043 13.2571 12.3564ZM11.4059 12C11.4059 11.6724 11.6724 11.406 12 11.406C12.3276 11.406 12.594 11.6724 12.594 12C12.594 12.3276 12.3276 12.594 12 12.594C11.6724 12.594 11.4059 12.3276 11.4059 12Z" fill="#F44336"/>
<path d="M21.1486 12C21.1486 6.9555 17.0446 2.8515 12.0001 2.8515C6.95556 2.8515 2.85156 6.9555 2.85156 12C2.85156 17.0445 6.95556 21.1485 12.0001 21.1485C17.0446 21.1485 21.1486 17.0445 21.1486 12ZM3.56444 12C3.56444 7.34855 7.34866 3.56438 12.0001 3.56438C16.6515 3.56438 20.4357 7.34855 20.4357 12C20.4357 16.6515 16.6515 20.4356 12.0001 20.4356C7.34861 20.4356 3.56444 16.6515 3.56444 12Z" fill="#F44336"/>
<path d="M12.3564 17.1802H11.6436V19.8416H12.3564V17.1802Z" fill="#F44336"/>
<path d="M2.89089 15.7735L2.2323 16.0463C3.31319 18.6557 5.34555 20.6882 7.95503 21.769L8.22785 21.1105C5.79424 20.1024 3.89889 18.207 2.89089 15.7735Z" fill="#F44336"/>
<path d="M21.1124 8.22585L21.7709 7.95303C20.69 5.34355 18.6576 3.31114 16.0482 2.23035L15.7754 2.88889C18.209 3.89694 20.1043 5.79228 21.1124 8.22585Z" fill="#F44336"/>
<path d="M12 2.13866V1.42578C9.17553 1.42578 6.52016 2.5257 4.52291 4.52286C2.5257 6.52011 1.42578 9.17553 1.42578 12H2.13866C2.13866 9.36594 3.16442 6.88953 5.02695 5.02695C6.88953 3.16442 9.36598 2.13866 12 2.13866Z" fill="#F44336"/>
<path d="M22.5743 12H21.8614C21.8614 14.634 20.8356 17.1105 18.9731 18.9731C17.1105 20.8357 14.634 21.8614 12 21.8614V22.5743C14.8245 22.5743 17.4799 21.4743 19.4772 19.4772C21.4743 17.4799 22.5743 14.8245 22.5743 12Z" fill="#F44336"/>
<path d="M12.3564 4.15839H11.6436V6.81976H12.3564V4.15839Z" fill="#F44336"/>
<path d="M9.80126 5.76078L9.32837 4.61914L8.66974 4.89196L9.14264 6.03359L9.80126 5.76078Z" fill="#F44336"/>
<path d="M14.1984 18.2379L14.6713 19.3796L15.3298 19.1068L14.857 17.9651L14.1984 18.2379Z" fill="#F44336"/>
<path d="M6.03344 9.14334L4.89185 8.67047L4.61905 9.32905L5.76064 9.80193L6.03344 9.14334Z" fill="#F44336"/>
<path d="M17.9668 14.8557L19.1084 15.3286L19.3812 14.67L18.2396 14.1971L17.9668 14.8557Z" fill="#F44336"/>
<path d="M4.61953 14.6712L4.89233 15.3298L6.03393 14.8569L5.76113 14.1983L4.61953 14.6712Z" fill="#F44336"/>
<path d="M19.3807 9.32917L19.1079 8.67059L17.9663 9.14349L18.2391 9.80207L19.3807 9.32917Z" fill="#F44336"/>
<path d="M8.67035 19.1074L9.32898 19.3802L9.80187 18.2385L9.14325 17.9657L8.67035 19.1074Z" fill="#F44336"/>
<path d="M15.3309 4.89225L14.6724 4.61945L14.1995 5.76108L14.8581 6.03388L15.3309 4.89225Z" fill="#F44336"/>
<path d="M6.20286 6.70744L8.08472 8.58929L8.58879 8.08522L6.70693 6.20336L6.20286 6.70744Z" fill="#F44336"/>
<path d="M15.4107 15.9156L17.2926 17.7974L17.7967 17.2934L15.9148 15.4115L15.4107 15.9156Z" fill="#F44336"/>
<path d="M6.81982 11.6436H4.15845V12.3564H6.81982V11.6436Z" fill="#F44336"/>
<path d="M19.8416 11.6436H17.1802V12.3564H19.8416V11.6436Z" fill="#F44336"/>
<path d="M6.20198 17.293L6.70605 17.7971L8.58791 15.9152L8.08384 15.4111L6.20198 17.293Z" fill="#F44336"/>
<path d="M17.7964 6.70702L17.2924 6.20294L15.4105 8.0848L15.9146 8.58887L17.7964 6.70702Z" fill="#F44336"/>
</g>
<defs>
<clipPath id="clip0_1036_33">
<rect width="24" height="24" fill="white"/>
</clipPath>
</defs>
</svg>
