<svg width="25" height="25" viewBox="0 0 25 25" fill="none" xmlns="http://www.w3.org/2000/svg">
<path d="M12.5 0.0751953C5.5965 0.0751953 0 5.6717 0 12.5752C0 18.4372 4.036 23.3562 9.4805 24.7072V16.3952H6.903V12.5752H9.4805V10.9292C9.4805 6.6747 11.406 4.7027 15.583 4.7027C16.375 4.7027 17.7415 4.8582 18.3005 5.0132V8.4757C18.0055 8.4447 17.493 8.4292 16.8565 8.4292C14.807 8.4292 14.015 9.2057 14.015 11.2242V12.5752H18.098L17.3965 16.3952H14.015V24.9837C20.2045 24.2362 25.0005 18.9662 25.0005 12.5752C25 5.6717 19.4035 0.0751953 12.5 0.0751953Z" fill="#B9DED6"/>
</svg>
