<svg width="315" height="155" viewBox="0 0 315 155" fill="none" xmlns="http://www.w3.org/2000/svg">
<path fill-rule="evenodd" clip-rule="evenodd" d="M163.537 17.9137C163.242 18.0537 162.954 18.2038 162.672 18.3634L28.3372 114.423L203.91 115.064L186.751 100.357V88.4462L226.177 115.141H226.179L235.215 122.534L226.179 128.284L226.179 128.283H225.358V128.284H226.18L186.751 154.981V143.07L204.001 128.284H225.042L224.802 128.283H204.001V128.208L6.8335 127.488C3.21362 127.475 0.286133 124.536 0.286133 120.916C0.286133 118.226 1.90342 115.913 4.21772 114.897L12.0908 110.008L12.139 110.078L158.411 5.07168L158.423 5.08849L162.124 2.19718C164.39 0.426485 167.366 0.186472 169.805 1.3238C170.506 1.59477 171.177 1.97792 171.792 2.47597L177.117 6.78779L312.01 103.448C315.288 105.797 314.719 110.831 310.999 112.389C309.346 113.081 307.452 112.865 305.998 111.818L176.299 18.4248C175.842 18.1422 175.367 17.8877 174.876 17.664C173.221 16.9627 171.402 16.5744 169.501 16.5758C169.198 16.5758 168.898 16.5854 168.6 16.6043C166.809 16.7588 165.097 17.2112 163.537 17.9137ZM225.358 127.462V115.962H226.179V127.462L226.179 115.962H225.358V127.462H225.358Z" fill="#B9DED6"/>
</svg>
