<svg width="40" height="39" viewBox="0 0 40 39" fill="none" xmlns="http://www.w3.org/2000/svg">
<mask id="path-1-inside-1_419_1231" fill="white">
<path d="M33.1567 8.31373L36.4782 8.12305C36.4501 8.08143 36.4189 8.04106 36.3847 8.0022C35.5995 7.11107 34.7435 6.29371 33.8281 5.55644L32.8009 7.99458C32.9208 8.09933 33.0394 8.20572 33.1567 8.31373Z"/>
<path d="M26.3546 4.35591C26.6229 4.44179 26.8889 4.53379 27.1524 4.63178C27.8636 3.9967 28.7242 3.45179 29.7607 2.99427C27.7595 2.03667 25.5996 1.39683 23.3566 1.11758C17.8855 0.436445 12.3678 1.95662 8.01746 5.34367C3.66712 8.73073 0.84047 13.7072 0.159332 19.1784C-0.469582 24.2301 0.77819 29.3214 3.63941 33.4968C4.0341 34.0728 4.83206 34.1698 5.38301 33.7408C5.93397 33.3119 6.02879 32.5197 5.63896 31.9404C3.18709 28.2969 2.12251 23.8768 2.66856 19.4908C3.26685 14.6851 5.74968 10.3139 9.57086 7.33886C9.9844 7.01689 10.4099 6.71412 10.8461 6.43094V4.69796C10.8461 3.83194 11.5508 3.12754 12.4166 3.12754H24.8216C25.57 3.12754 26.198 3.65396 26.3546 4.35591Z"/>
<path d="M17.0394 3.87592C16.2866 4.03387 15.5444 4.23922 14.8175 4.49075H12.8434C12.4387 4.49075 12.4386 3.87592 12.8434 3.87592H17.0394Z"/>
<path d="M30.272 9.92225L31.1261 9.31727C31.1681 9.35162 31.2098 9.38617 31.2515 9.42093L30.3179 10.0777C30.3029 10.0675 30.2877 10.0574 30.2725 10.0473L30.272 9.92225Z"/>
<path fill-rule="evenodd" clip-rule="evenodd" d="M6.25343 24.7756C5.57058 24.9128 5.1234 25.5795 5.31336 26.2496C5.94254 28.469 7.04057 30.5331 8.53874 32.3C10.3094 34.3883 12.581 35.993 15.1409 36.964C17.7009 37.935 20.4653 38.2405 23.1755 37.8518C25.8857 37.4631 28.4529 36.393 30.6367 34.7417C31.6342 33.9874 32.5368 33.1232 33.3291 32.1684L36.2918 34.8016L39.6279 31.048L34.8676 29.9648C35.1594 29.4626 35.4247 28.9437 35.662 28.4101C36.7743 25.9084 37.2336 23.1653 36.9968 20.4376C36.8075 18.2576 36.1786 16.1444 35.1541 14.2235C34.431 14.7398 33.6835 15.1143 32.9036 15.3638C33.7831 16.9976 34.3227 18.7979 34.484 20.6558C34.6839 22.9582 34.2962 25.2736 33.3572 27.3853C32.4183 29.4971 30.9588 31.336 29.1154 32.7298C28.2952 33.35 27.411 33.8731 26.4805 34.2916L25.9303 35.487C25.7778 35.385 25.6283 35.3089 25.4822 35.2547C25.3559 35.2074 25.2322 35.1764 25.1122 35.1589C25.0033 35.1431 24.8974 35.1386 24.7946 35.1428C24.6759 35.1474 24.5615 35.1635 24.4524 35.1893C24.3172 35.221 24.1907 35.2667 24.0732 35.3198C23.935 35.3818 23.8099 35.454 23.7012 35.5273L23.5749 35.2246C23.3241 35.2751 23.0715 35.3186 22.8174 35.3551C20.5298 35.6832 18.1963 35.4253 16.0355 34.6057C13.8746 33.7861 11.9571 32.4315 10.4625 30.6688C9.24051 29.2276 8.33388 27.5521 7.79499 25.7504C7.59539 25.0831 6.93629 24.6384 6.25343 24.7756ZM25.7443 35.7645C25.4714 35.5819 25.1903 35.4844 24.9082 35.4755C24.488 35.4622 24.1215 35.647 23.888 35.8043L23.8614 35.8221L24.7227 37.4066L25.7523 35.7699L25.7443 35.7645Z"/>
<path d="M31.8451 12.5084C31.8436 12.5174 31.8422 12.5265 31.841 12.5355C31.8417 12.5301 31.8425 12.5247 31.8433 12.5193C31.8439 12.5157 31.8445 12.512 31.8451 12.5084Z"/>
<path d="M18.9523 12.9765C18.6566 15.8693 15.1319 16.9945 13.1975 15.0541L12.5699 15.2807C13.8121 16.6944 15.9157 17.0649 17.5815 16.1031C18.8732 15.3573 19.5399 14.0617 19.5786 12.7503L18.9523 12.9765Z"/>
<path d="M25.3318 13.3697L24.7169 12.5074V16.324C24.7169 16.4939 24.8546 16.6315 25.0244 16.6315C25.194 16.6315 25.3318 16.4939 25.3318 16.324V13.3697Z"/>
<path d="M23.824 11.7233C23.6293 11.642 23.4211 11.595 23.2091 11.5852V16.324C23.2091 16.4939 23.3467 16.6315 23.5165 16.6315C23.6863 16.6315 23.8238 16.4939 23.824 16.324V11.7233Z"/>
<path fill-rule="evenodd" clip-rule="evenodd" d="M28.4964 17.8073L26.392 14.8564V17.1031C26.392 17.9688 25.6874 18.6733 24.8215 18.6733H12.4166C11.5506 18.6733 10.8461 17.9688 10.8461 17.1031V15.903L8.38782 16.7905C7.26194 17.197 6.83489 18.5658 7.52988 19.5403L15.3738 30.5399C16.032 31.4629 17.3676 31.5593 18.1515 30.7404L22.2661 26.442C22.2086 26.3622 22.1463 26.2856 22.0791 26.2128C21.7598 25.8672 21.3538 25.6987 20.9479 25.5303C20.6017 25.3867 20.2557 25.2432 19.9638 24.9898C19.3382 24.4468 19.2275 23.5683 19.5098 22.8181C19.4972 24.0931 20.7209 24.7091 21.8481 24.769C22.4823 24.8029 22.956 25.0204 23.3077 25.3538L23.7262 24.9167C23.4929 24.7035 23.1775 24.5351 22.7569 24.4078C22.654 24.3766 22.5441 24.3458 22.4304 24.3139C21.5033 24.0539 20.316 23.7209 20.4713 22.5314C20.7413 23.6999 22.0026 23.7535 23.127 23.8013C23.5319 23.8185 23.919 23.8349 24.2357 23.9024C24.3656 23.9301 24.4843 23.9668 24.5927 24.0115L24.7785 23.8174C24.6712 23.7388 24.5532 23.6661 24.4237 23.6001C24.137 23.4539 23.8488 23.3563 23.5685 23.2614C22.9864 23.0643 22.439 22.879 22.0122 22.2942C21.7558 21.9435 21.5741 21.524 21.4972 21.0961C21.933 22.1994 23.7101 22.5162 24.6954 22.6662C25.0486 22.7199 25.3575 22.8099 25.627 22.931L28.3304 20.1069C28.9308 19.4797 29.0005 18.5142 28.4964 17.8073ZM18.2263 22.7387C18.3083 22.5947 18.4914 22.5444 18.6354 22.6263C18.7793 22.7083 18.8296 22.8914 18.7477 23.0353L16.0923 27.7014C16.0104 27.8454 15.8273 27.8957 15.6833 27.8137C15.5393 27.7318 15.489 27.5487 15.571 27.4047L18.2263 22.7387ZM10.9114 20.1593C10.9373 20.3229 11.091 20.4344 11.2546 20.4085L16.2353 19.6178C16.3989 19.5919 16.5105 19.4382 16.4845 19.2746C16.4586 19.111 16.3049 18.9994 16.1413 19.0254L11.1606 19.816C10.997 19.842 10.8854 19.9957 10.9114 20.1593ZM17.0846 21.1158C17.2284 21.0336 17.4116 21.0835 17.4938 21.2273C17.576 21.3711 17.5261 21.5543 17.3823 21.6365L12.7215 24.301C12.5776 24.3832 12.3944 24.3333 12.3122 24.1895C12.23 24.0457 12.2799 23.8625 12.4237 23.7802L17.0846 21.1158Z"/>
<path d="M22.0086 16.6315C22.1782 16.6315 22.3157 16.4939 22.3159 16.3241V12.9681C22.3159 12.5632 21.701 12.5633 21.701 12.9681V16.324C21.701 16.4939 21.8387 16.6315 22.0086 16.6315Z"/>
<path d="M35.5207 1.53891L32.759 8.09393C32.7329 8.15605 32.6898 8.20962 32.6348 8.24859L30.272 9.92225L30.2697 9.36424L28.1036 9.37322L28.1122 11.4521L27.9693 11.5533C27.9677 11.5102 27.9668 11.4673 27.9666 11.4246C27.9662 11.318 27.9691 11.2112 27.972 11.1044C27.9797 10.8262 27.9873 10.548 27.9354 10.2756C27.8873 10.0221 27.7743 9.76778 27.5968 9.58612C27.7297 9.99266 27.5857 10.411 27.4093 10.8157C27.38 10.8829 27.3498 10.9499 27.3198 11.0162C27.1288 11.4392 26.9468 11.8422 27.0633 12.1951L25.3318 13.4215L25.3318 13.3697L24.7169 12.5074L24.7169 13.8571L24.6132 13.9306C24.3736 14.1003 24.0433 13.9287 24.0489 13.6352C24.1846 6.5809 26.3973 2.71825 35.5207 1.53891Z"/>
<path fill-rule="evenodd" clip-rule="evenodd" d="M40 7.92086L32.8987 8.32855C32.8314 8.33241 32.7665 8.35501 32.7114 8.3938L30.3179 10.0777C30.448 10.1662 30.5728 10.2624 30.6913 10.366C30.8122 10.4717 30.9274 10.5876 31.032 10.7118C30.9534 10.7815 30.8908 10.8622 30.8453 10.9529C30.8092 11.025 30.7844 11.1019 30.7709 11.1831C30.6148 11.0472 30.451 10.9204 30.2757 10.8113L30.277 11.1291C30.4599 11.3127 30.5724 11.4746 30.6274 11.5584L30.626 11.5599C30.6204 11.5657 30.6149 11.5716 30.6095 11.5775L30.604 11.5837L30.5991 11.5892C30.5967 11.592 30.5943 11.5948 30.5918 11.5976L30.5867 11.6039C30.5814 11.6104 30.5761 11.6169 30.571 11.6239L30.5704 11.6246C30.5676 11.6284 30.5648 11.6322 30.562 11.6361L30.5561 11.6444C30.5547 11.6466 30.5533 11.6487 30.5518 11.6508C30.5484 11.6559 30.545 11.6611 30.5417 11.6664L30.5405 11.6684C30.5395 11.6698 30.5386 11.6713 30.5377 11.6728L30.5357 11.6761C30.532 11.6821 30.5283 11.6883 30.525 11.6945C30.4747 11.7846 30.4495 11.8839 30.4499 11.9897C30.4499 11.9948 30.45 12 30.4501 12.0049L30.4509 12.0205C30.4509 12.0214 30.4509 12.0223 30.4509 12.0232C30.4509 12.0238 30.451 12.0245 30.4511 12.0251L30.4514 12.0302C30.4516 12.0325 30.4517 12.0348 30.4518 12.037L30.4521 12.0399C30.4525 12.0448 30.4529 12.0497 30.4534 12.0546L30.4536 12.056C30.4541 12.0603 30.4547 12.0646 30.4552 12.0689L30.4556 12.0718L30.4565 12.0788L30.4572 12.0838L30.4575 12.0856C30.459 12.0952 30.4605 12.1043 30.4623 12.1132C30.3895 12.1743 30.3294 12.2392 30.2819 12.3078L30.283 12.579L28.311 12.5871C28.4776 12.7734 28.7041 12.9023 28.9416 12.9851C28.6956 12.9806 28.4374 12.9614 28.1922 12.9167C27.7645 12.8387 27.3771 12.683 27.1659 12.3933C27.1498 12.3712 27.1352 12.3488 27.1222 12.3261L25.3318 13.5858V14.8656C25.6919 14.9785 26.0452 15.0818 26.392 15.175L26.392 14.8564L26.6714 15.2481C32.3136 16.6872 36.2441 15.3159 40 7.92086ZM32.3954 11.9871C32.2488 12.0845 32.143 12.2037 32.0804 12.3417C31.9876 12.5468 32.0036 12.7663 32.0336 12.9143L32.037 12.931L32.9984 12.8304L32.3997 11.9842L32.3954 11.9871ZM30.9575 11.5364C30.9575 11.5364 30.8714 11.2789 30.9967 11.029C31.0486 10.9254 31.1368 10.8231 31.2826 10.741L32.2963 11.8379C32.2144 11.8923 32.146 11.9508 32.089 12.0119C32.0399 12.0649 31.999 12.1197 31.9656 12.1756C31.9353 12.2262 31.9115 12.2778 31.8925 12.3294C31.8703 12.3892 31.8548 12.4492 31.8451 12.5084C31.833 12.582 31.8297 12.654 31.8317 12.723C31.8341 12.8041 31.8442 12.8811 31.8581 12.9498L30.3711 12.9523C30.3252 12.84 30.3041 12.7143 30.337 12.5853C30.3717 12.4493 30.4669 12.3093 30.6575 12.1771C30.6575 12.1771 30.5621 11.9758 30.6729 11.777C30.721 11.6908 30.8076 11.6052 30.9575 11.5364Z"/>
<path d="M24.7169 14.6629V14.0184L24.6716 14.0502C24.4449 14.2098 24.4779 14.5476 24.7169 14.6629Z"/>
<path d="M28.1157 12.2815L28.113 11.6291L27.9804 11.7223C27.9989 11.9162 28.0387 12.1076 28.1157 12.2815Z"/>
</mask>
<path d="M33.1567 8.31373L36.4782 8.12305C36.4501 8.08143 36.4189 8.04106 36.3847 8.0022C35.5995 7.11107 34.7435 6.29371 33.8281 5.55644L32.8009 7.99458C32.9208 8.09933 33.0394 8.20572 33.1567 8.31373Z" fill="#B9DED6"/>
<path d="M26.3546 4.35591C26.6229 4.44179 26.8889 4.53379 27.1524 4.63178C27.8636 3.9967 28.7242 3.45179 29.7607 2.99427C27.7595 2.03667 25.5996 1.39683 23.3566 1.11758C17.8855 0.436445 12.3678 1.95662 8.01746 5.34367C3.66712 8.73073 0.84047 13.7072 0.159332 19.1784C-0.469582 24.2301 0.77819 29.3214 3.63941 33.4968C4.0341 34.0728 4.83206 34.1698 5.38301 33.7408C5.93397 33.3119 6.02879 32.5197 5.63896 31.9404C3.18709 28.2969 2.12251 23.8768 2.66856 19.4908C3.26685 14.6851 5.74968 10.3139 9.57086 7.33886C9.9844 7.01689 10.4099 6.71412 10.8461 6.43094V4.69796C10.8461 3.83194 11.5508 3.12754 12.4166 3.12754H24.8216C25.57 3.12754 26.198 3.65396 26.3546 4.35591Z" fill="#B9DED6"/>
<path d="M17.0394 3.87592C16.2866 4.03387 15.5444 4.23922 14.8175 4.49075H12.8434C12.4387 4.49075 12.4386 3.87592 12.8434 3.87592H17.0394Z" fill="#B9DED6"/>
<path d="M30.272 9.92225L31.1261 9.31727C31.1681 9.35162 31.2098 9.38617 31.2515 9.42093L30.3179 10.0777C30.3029 10.0675 30.2877 10.0574 30.2725 10.0473L30.272 9.92225Z" fill="#B9DED6"/>
<path fill-rule="evenodd" clip-rule="evenodd" d="M6.25343 24.7756C5.57058 24.9128 5.1234 25.5795 5.31336 26.2496C5.94254 28.469 7.04057 30.5331 8.53874 32.3C10.3094 34.3883 12.581 35.993 15.1409 36.964C17.7009 37.935 20.4653 38.2405 23.1755 37.8518C25.8857 37.4631 28.4529 36.393 30.6367 34.7417C31.6342 33.9874 32.5368 33.1232 33.3291 32.1684L36.2918 34.8016L39.6279 31.048L34.8676 29.9648C35.1594 29.4626 35.4247 28.9437 35.662 28.4101C36.7743 25.9084 37.2336 23.1653 36.9968 20.4376C36.8075 18.2576 36.1786 16.1444 35.1541 14.2235C34.431 14.7398 33.6835 15.1143 32.9036 15.3638C33.7831 16.9976 34.3227 18.7979 34.484 20.6558C34.6839 22.9582 34.2962 25.2736 33.3572 27.3853C32.4183 29.4971 30.9588 31.336 29.1154 32.7298C28.2952 33.35 27.411 33.8731 26.4805 34.2916L25.9303 35.487C25.7778 35.385 25.6283 35.3089 25.4822 35.2547C25.3559 35.2074 25.2322 35.1764 25.1122 35.1589C25.0033 35.1431 24.8974 35.1386 24.7946 35.1428C24.6759 35.1474 24.5615 35.1635 24.4524 35.1893C24.3172 35.221 24.1907 35.2667 24.0732 35.3198C23.935 35.3818 23.8099 35.454 23.7012 35.5273L23.5749 35.2246C23.3241 35.2751 23.0715 35.3186 22.8174 35.3551C20.5298 35.6832 18.1963 35.4253 16.0355 34.6057C13.8746 33.7861 11.9571 32.4315 10.4625 30.6688C9.24051 29.2276 8.33388 27.5521 7.79499 25.7504C7.59539 25.0831 6.93629 24.6384 6.25343 24.7756ZM25.7443 35.7645C25.4714 35.5819 25.1903 35.4844 24.9082 35.4755C24.488 35.4622 24.1215 35.647 23.888 35.8043L23.8614 35.8221L24.7227 37.4066L25.7523 35.7699L25.7443 35.7645Z" fill="#B9DED6"/>
<path d="M31.8451 12.5084C31.8436 12.5174 31.8422 12.5265 31.841 12.5355C31.8417 12.5301 31.8425 12.5247 31.8433 12.5193C31.8439 12.5157 31.8445 12.512 31.8451 12.5084Z" fill="#B9DED6"/>
<path d="M18.9523 12.9765C18.6566 15.8693 15.1319 16.9945 13.1975 15.0541L12.5699 15.2807C13.8121 16.6944 15.9157 17.0649 17.5815 16.1031C18.8732 15.3573 19.5399 14.0617 19.5786 12.7503L18.9523 12.9765Z" fill="#B9DED6"/>
<path d="M25.3318 13.3697L24.7169 12.5074V16.324C24.7169 16.4939 24.8546 16.6315 25.0244 16.6315C25.194 16.6315 25.3318 16.4939 25.3318 16.324V13.3697Z" fill="#B9DED6"/>
<path d="M23.824 11.7233C23.6293 11.642 23.4211 11.595 23.2091 11.5852V16.324C23.2091 16.4939 23.3467 16.6315 23.5165 16.6315C23.6863 16.6315 23.8238 16.4939 23.824 16.324V11.7233Z" fill="#B9DED6"/>
<path fill-rule="evenodd" clip-rule="evenodd" d="M28.4964 17.8073L26.392 14.8564V17.1031C26.392 17.9688 25.6874 18.6733 24.8215 18.6733H12.4166C11.5506 18.6733 10.8461 17.9688 10.8461 17.1031V15.903L8.38782 16.7905C7.26194 17.197 6.83489 18.5658 7.52988 19.5403L15.3738 30.5399C16.032 31.4629 17.3676 31.5593 18.1515 30.7404L22.2661 26.442C22.2086 26.3622 22.1463 26.2856 22.0791 26.2128C21.7598 25.8672 21.3538 25.6987 20.9479 25.5303C20.6017 25.3867 20.2557 25.2432 19.9638 24.9898C19.3382 24.4468 19.2275 23.5683 19.5098 22.8181C19.4972 24.0931 20.7209 24.7091 21.8481 24.769C22.4823 24.8029 22.956 25.0204 23.3077 25.3538L23.7262 24.9167C23.4929 24.7035 23.1775 24.5351 22.7569 24.4078C22.654 24.3766 22.5441 24.3458 22.4304 24.3139C21.5033 24.0539 20.316 23.7209 20.4713 22.5314C20.7413 23.6999 22.0026 23.7535 23.127 23.8013C23.5319 23.8185 23.919 23.8349 24.2357 23.9024C24.3656 23.9301 24.4843 23.9668 24.5927 24.0115L24.7785 23.8174C24.6712 23.7388 24.5532 23.6661 24.4237 23.6001C24.137 23.4539 23.8488 23.3563 23.5685 23.2614C22.9864 23.0643 22.439 22.879 22.0122 22.2942C21.7558 21.9435 21.5741 21.524 21.4972 21.0961C21.933 22.1994 23.7101 22.5162 24.6954 22.6662C25.0486 22.7199 25.3575 22.8099 25.627 22.931L28.3304 20.1069C28.9308 19.4797 29.0005 18.5142 28.4964 17.8073ZM18.2263 22.7387C18.3083 22.5947 18.4914 22.5444 18.6354 22.6263C18.7793 22.7083 18.8296 22.8914 18.7477 23.0353L16.0923 27.7014C16.0104 27.8454 15.8273 27.8957 15.6833 27.8137C15.5393 27.7318 15.489 27.5487 15.571 27.4047L18.2263 22.7387ZM10.9114 20.1593C10.9373 20.3229 11.091 20.4344 11.2546 20.4085L16.2353 19.6178C16.3989 19.5919 16.5105 19.4382 16.4845 19.2746C16.4586 19.111 16.3049 18.9994 16.1413 19.0254L11.1606 19.816C10.997 19.842 10.8854 19.9957 10.9114 20.1593ZM17.0846 21.1158C17.2284 21.0336 17.4116 21.0835 17.4938 21.2273C17.576 21.3711 17.5261 21.5543 17.3823 21.6365L12.7215 24.301C12.5776 24.3832 12.3944 24.3333 12.3122 24.1895C12.23 24.0457 12.2799 23.8625 12.4237 23.7802L17.0846 21.1158Z" fill="#B9DED6"/>
<path d="M22.0086 16.6315C22.1782 16.6315 22.3157 16.4939 22.3159 16.3241V12.9681C22.3159 12.5632 21.701 12.5633 21.701 12.9681V16.324C21.701 16.4939 21.8387 16.6315 22.0086 16.6315Z" fill="#B9DED6"/>
<path d="M35.5207 1.53891L32.759 8.09393C32.7329 8.15605 32.6898 8.20962 32.6348 8.24859L30.272 9.92225L30.2697 9.36424L28.1036 9.37322L28.1122 11.4521L27.9693 11.5533C27.9677 11.5102 27.9668 11.4673 27.9666 11.4246C27.9662 11.318 27.9691 11.2112 27.972 11.1044C27.9797 10.8262 27.9873 10.548 27.9354 10.2756C27.8873 10.0221 27.7743 9.76778 27.5968 9.58612C27.7297 9.99266 27.5857 10.411 27.4093 10.8157C27.38 10.8829 27.3498 10.9499 27.3198 11.0162C27.1288 11.4392 26.9468 11.8422 27.0633 12.1951L25.3318 13.4215L25.3318 13.3697L24.7169 12.5074L24.7169 13.8571L24.6132 13.9306C24.3736 14.1003 24.0433 13.9287 24.0489 13.6352C24.1846 6.5809 26.3973 2.71825 35.5207 1.53891Z" fill="#B9DED6"/>
<path fill-rule="evenodd" clip-rule="evenodd" d="M40 7.92086L32.8987 8.32855C32.8314 8.33241 32.7665 8.35501 32.7114 8.3938L30.3179 10.0777C30.448 10.1662 30.5728 10.2624 30.6913 10.366C30.8122 10.4717 30.9274 10.5876 31.032 10.7118C30.9534 10.7815 30.8908 10.8622 30.8453 10.9529C30.8092 11.025 30.7844 11.1019 30.7709 11.1831C30.6148 11.0472 30.451 10.9204 30.2757 10.8113L30.277 11.1291C30.4599 11.3127 30.5724 11.4746 30.6274 11.5584L30.626 11.5599C30.6204 11.5657 30.6149 11.5716 30.6095 11.5775L30.604 11.5837L30.5991 11.5892C30.5967 11.592 30.5943 11.5948 30.5918 11.5976L30.5867 11.6039C30.5814 11.6104 30.5761 11.6169 30.571 11.6239L30.5704 11.6246C30.5676 11.6284 30.5648 11.6322 30.562 11.6361L30.5561 11.6444C30.5547 11.6466 30.5533 11.6487 30.5518 11.6508C30.5484 11.6559 30.545 11.6611 30.5417 11.6664L30.5405 11.6684C30.5395 11.6698 30.5386 11.6713 30.5377 11.6728L30.5357 11.6761C30.532 11.6821 30.5283 11.6883 30.525 11.6945C30.4747 11.7846 30.4495 11.8839 30.4499 11.9897C30.4499 11.9948 30.45 12 30.4501 12.0049L30.4509 12.0205C30.4509 12.0214 30.4509 12.0223 30.4509 12.0232C30.4509 12.0238 30.451 12.0245 30.4511 12.0251L30.4514 12.0302C30.4516 12.0325 30.4517 12.0348 30.4518 12.037L30.4521 12.0399C30.4525 12.0448 30.4529 12.0497 30.4534 12.0546L30.4536 12.056C30.4541 12.0603 30.4547 12.0646 30.4552 12.0689L30.4556 12.0718L30.4565 12.0788L30.4572 12.0838L30.4575 12.0856C30.459 12.0952 30.4605 12.1043 30.4623 12.1132C30.3895 12.1743 30.3294 12.2392 30.2819 12.3078L30.283 12.579L28.311 12.5871C28.4776 12.7734 28.7041 12.9023 28.9416 12.9851C28.6956 12.9806 28.4374 12.9614 28.1922 12.9167C27.7645 12.8387 27.3771 12.683 27.1659 12.3933C27.1498 12.3712 27.1352 12.3488 27.1222 12.3261L25.3318 13.5858V14.8656C25.6919 14.9785 26.0452 15.0818 26.392 15.175L26.392 14.8564L26.6714 15.2481C32.3136 16.6872 36.2441 15.3159 40 7.92086ZM32.3954 11.9871C32.2488 12.0845 32.143 12.2037 32.0804 12.3417C31.9876 12.5468 32.0036 12.7663 32.0336 12.9143L32.037 12.931L32.9984 12.8304L32.3997 11.9842L32.3954 11.9871ZM30.9575 11.5364C30.9575 11.5364 30.8714 11.2789 30.9967 11.029C31.0486 10.9254 31.1368 10.8231 31.2826 10.741L32.2963 11.8379C32.2144 11.8923 32.146 11.9508 32.089 12.0119C32.0399 12.0649 31.999 12.1197 31.9656 12.1756C31.9353 12.2262 31.9115 12.2778 31.8925 12.3294C31.8703 12.3892 31.8548 12.4492 31.8451 12.5084C31.833 12.582 31.8297 12.654 31.8317 12.723C31.8341 12.8041 31.8442 12.8811 31.8581 12.9498L30.3711 12.9523C30.3252 12.84 30.3041 12.7143 30.337 12.5853C30.3717 12.4493 30.4669 12.3093 30.6575 12.1771C30.6575 12.1771 30.5621 11.9758 30.6729 11.777C30.721 11.6908 30.8076 11.6052 30.9575 11.5364Z" fill="#B9DED6"/>
<path d="M24.7169 14.6629V14.0184L24.6716 14.0502C24.4449 14.2098 24.4779 14.5476 24.7169 14.6629Z" fill="#B9DED6"/>
<path d="M28.1157 12.2815L28.113 11.6291L27.9804 11.7223C27.9989 11.9162 28.0387 12.1076 28.1157 12.2815Z" fill="#B9DED6"/>
<path d="M28.014 12.783L27.9796 12.8249L27.9796 12.8249L28.014 12.783ZM30.5059 12.0338L30.5055 12.027L30.3973 12.0334L30.3977 12.0402L30.5059 12.0338ZM24.6728 12.5389L25.2877 13.4012L25.376 13.3382L24.7611 12.4759L24.6728 12.5389ZM27.9796 12.8249C28.0384 12.8732 28.0993 12.9184 28.1614 12.9613L28.223 12.8721C28.163 12.8306 28.1046 12.7872 28.0484 12.7411L27.9796 12.8249ZM27.9338 12.7863C27.9489 12.7994 27.9642 12.8123 27.9796 12.8249L28.0484 12.7411C28.0337 12.729 28.0192 12.7168 28.0048 12.7043L27.9338 12.7863ZM33.1567 8.31373L33.0833 8.39352L33.1171 8.42465L33.163 8.42201L33.1567 8.31373ZM36.4782 8.12305L36.4844 8.23133L36.6748 8.2204L36.5681 8.06236L36.4782 8.12305ZM36.3847 8.0022L36.4661 7.93049V7.93049L36.3847 8.0022ZM33.8281 5.55644L33.8961 5.47197L33.784 5.38169L33.7281 5.51433L33.8281 5.55644ZM32.8009 7.99458L32.7009 7.95247L32.6705 8.0247L32.7295 8.07627L32.8009 7.99458ZM27.1524 4.63178L27.1146 4.73344L27.1759 4.75623L27.2246 4.71268L27.1524 4.63178ZM26.3546 4.35591L26.2487 4.37952L26.2622 4.44025L26.3215 4.45921L26.3546 4.35591ZM29.7607 2.99427L29.8045 3.0935L30.0203 2.99825L29.8075 2.89643L29.7607 2.99427ZM23.3566 1.11758L23.3432 1.22521L23.3566 1.11758ZM8.01746 5.34367L7.95083 5.25809L8.01746 5.34367ZM0.159332 19.1784L0.266961 19.1918L0.159332 19.1784ZM3.63941 33.4968L3.72888 33.4355H3.72888L3.63941 33.4968ZM5.38301 33.7408L5.31638 33.6553H5.31638L5.38301 33.7408ZM5.63896 31.9404L5.72894 31.8799L5.63896 31.9404ZM2.66856 19.4908L2.77619 19.5042L2.66856 19.4908ZM9.57086 7.33886L9.63749 7.42444L9.57086 7.33886ZM10.8461 6.43094L10.9052 6.52191L10.9546 6.48984V6.43094H10.8461ZM14.8175 4.49075V4.59921H14.8357L14.8529 4.59325L14.8175 4.49075ZM17.0394 3.87592L17.0617 3.98207L17.0394 3.76746V3.87592ZM31.1261 9.31727L31.1948 9.23334L31.1308 9.18099L31.0634 9.22876L31.1261 9.31727ZM31.2515 9.42093L31.3139 9.50964L31.4295 9.42831L31.321 9.3377L31.2515 9.42093ZM30.3179 10.0777L30.2569 10.1674H30.2569L30.3179 10.0777ZM30.2725 10.0473L30.1641 10.0478L30.1643 10.1059L30.2128 10.1379L30.2725 10.0473ZM5.31336 26.2496L5.41771 26.22L5.31336 26.2496ZM8.53874 32.3L8.62146 32.2299L8.53874 32.3ZM15.1409 36.964L15.1025 37.0654L15.1409 36.964ZM23.1755 37.8518L23.1601 37.7444L23.1755 37.8518ZM30.6367 34.7417L30.5713 34.6552L30.6367 34.7417ZM33.3291 32.1684L33.4011 32.0873L33.3173 32.0128L33.2456 32.0992L33.3291 32.1684ZM36.2918 34.8016L36.2198 34.8827L36.3008 34.9547L36.3729 34.8737L36.2918 34.8016ZM39.6279 31.048L39.709 31.1201L39.8308 30.983L39.652 30.9423L39.6279 31.048ZM34.8676 29.9648L34.7738 29.9103L34.6997 30.0379L34.8435 30.0706L34.8676 29.9648ZM35.662 28.4101L35.7611 28.4542L35.662 28.4101ZM36.9968 20.4376L36.8887 20.447L36.9968 20.4376ZM35.1541 14.2235L35.2498 14.1725L35.1917 14.0634L35.0911 14.1352L35.1541 14.2235ZM32.9036 15.3638L32.8705 15.2605L32.7462 15.3002L32.8081 15.4152L32.9036 15.3638ZM34.484 20.6558L34.592 20.6464L34.484 20.6558ZM33.3572 27.3853L33.4564 27.4294L33.3572 27.3853ZM29.1154 32.7298L29.1808 32.8164L29.1154 32.7298ZM26.4805 34.2916L26.436 34.1927L26.399 34.2093L26.382 34.2462L26.4805 34.2916ZM25.9303 35.487L25.8701 35.5771L25.9757 35.6477L26.0289 35.5323L25.9303 35.487ZM25.4822 35.2547L25.4442 35.3563L25.4444 35.3564L25.4822 35.2547ZM25.1122 35.1589L25.1278 35.0516L25.1278 35.0516L25.1122 35.1589ZM24.7946 35.1428L24.7988 35.2512L24.799 35.2512L24.7946 35.1428ZM24.4524 35.1893L24.4772 35.2949L24.4774 35.2949L24.4524 35.1893ZM24.0732 35.3198L24.1176 35.4188L24.1179 35.4186L24.0732 35.3198ZM23.7012 35.5273L23.6011 35.5691L23.6521 35.6913L23.7618 35.6173L23.7012 35.5273ZM23.5749 35.2246L23.675 35.1828L23.6408 35.1007L23.5535 35.1183L23.5749 35.2246ZM22.8174 35.3551L22.802 35.2477L22.8174 35.3551ZM10.4625 30.6688L10.3798 30.739L10.4625 30.6688ZM7.79499 25.7504L7.69107 25.7815L7.79499 25.7504ZM31.8451 12.5084L31.7381 12.4907L31.738 12.4909L31.8451 12.5084ZM31.841 12.5355L31.7335 12.5209L31.9485 12.5501L31.841 12.5355ZM31.8433 12.5193L31.7361 12.503L31.7361 12.503L31.8433 12.5193ZM24.9082 35.4755L24.9048 35.5839H24.9048L24.9082 35.4755ZM25.7443 35.7645L25.8052 35.6747L25.8047 35.6744L25.7443 35.7645ZM23.888 35.8043L23.9485 35.8943L23.9486 35.8943L23.888 35.8043ZM23.8614 35.8221L23.8009 35.7321L23.719 35.7872L23.7661 35.8739L23.8614 35.8221ZM24.7227 37.4066L24.6274 37.4584L24.7158 37.6211L24.8145 37.4643L24.7227 37.4066ZM25.7523 35.7699L25.8441 35.8276L25.8999 35.7389L25.8131 35.6801L25.7523 35.7699ZM30.4518 12.037L30.3431 12.0413L30.3441 12.0499L30.4518 12.037ZM30.4514 12.0302L30.3432 12.0371L30.3432 12.0376L30.4514 12.0302ZM13.1975 15.0541L13.2743 14.9775L13.2255 14.9287L13.1606 14.9521L13.1975 15.0541ZM18.9523 12.9765L18.9155 12.8744L18.8513 12.8976L18.8444 12.9654L18.9523 12.9765ZM12.5699 15.2807L12.5331 15.1787L12.3834 15.2327L12.4884 15.3523L12.5699 15.2807ZM17.5815 16.1031L17.6357 16.1971L17.6357 16.1971L17.5815 16.1031ZM19.5786 12.7503L19.6871 12.7535L19.6918 12.5942L19.5418 12.6483L19.5786 12.7503ZM25.3318 13.3697H25.4403L25.2234 13.3697L25.3318 13.3697ZM23.2091 11.5852L23.214 11.4769L23.1006 11.4717V11.5852H23.2091ZM23.824 11.7233H23.9324V11.651L23.8658 11.6232L23.824 11.7233ZM23.824 16.324L23.9324 16.3242V16.324H23.824ZM26.392 14.8564L26.4803 14.7934L26.2836 14.5175L26.2836 14.8564L26.392 14.8564ZM28.4964 17.8073L28.5847 17.7443H28.5847L28.4964 17.8073ZM10.8461 15.903H10.9545V15.7486L10.8092 15.801L10.8461 15.903ZM8.38782 16.7905L8.35099 16.6885L8.38782 16.7905ZM7.52988 19.5403L7.44157 19.6033L7.52988 19.5403ZM15.3738 30.5399L15.4622 30.477L15.3738 30.5399ZM18.1515 30.7404L18.0731 30.6654L18.1515 30.7404ZM22.2661 26.442L22.3444 26.517L22.4068 26.4519L22.3541 26.3787L22.2661 26.442ZM22.0791 26.2128L22.1588 26.1392L22.1588 26.1392L22.0791 26.2128ZM20.9479 25.5303L20.9895 25.4302L20.9479 25.5303ZM19.9638 24.9898L19.8927 25.0717L19.8927 25.0717L19.9638 24.9898ZM19.5098 22.8181L19.6183 22.8192L19.4083 22.7799L19.5098 22.8181ZM21.8481 24.769L21.8539 24.6607L21.8539 24.6607L21.8481 24.769ZM23.3077 25.3538L23.2331 25.4325L23.3115 25.5068L23.3861 25.4288L23.3077 25.3538ZM23.7262 24.9167L23.8046 24.9917L23.8813 24.9115L23.7994 24.8366L23.7262 24.9167ZM22.7569 24.4078L22.7883 24.304L22.7883 24.304L22.7569 24.4078ZM22.4304 24.3139L22.4011 24.4183L22.4304 24.3139ZM20.4713 22.5314L20.577 22.507L20.3637 22.5174L20.4713 22.5314ZM23.127 23.8013L23.1224 23.9096L23.127 23.8013ZM24.2357 23.9024L24.2131 24.0085L24.2132 24.0085L24.2357 23.9024ZM24.5927 24.0115L24.5513 24.1118L24.6198 24.1401L24.671 24.0865L24.5927 24.0115ZM24.7785 23.8174L24.8568 23.8924L24.9423 23.8031L24.8426 23.73L24.7785 23.8174ZM24.4237 23.6001L24.3744 23.6967L24.3745 23.6968L24.4237 23.6001ZM23.5685 23.2614L23.5337 23.3641L23.5685 23.2614ZM22.0122 22.2942L22.0999 22.2303L22.0998 22.2302L22.0122 22.2942ZM21.4972 21.0961L21.5981 21.0562L21.3905 21.1152L21.4972 21.0961ZM24.6954 22.6662L24.6791 22.7734L24.6791 22.7734L24.6954 22.6662ZM25.627 22.931L25.5825 23.03L25.6524 23.0614L25.7053 23.006L25.627 22.931ZM28.3304 20.1069L28.4088 20.1819L28.3304 20.1069ZM22.3159 16.3241L22.4244 16.3242V16.3241H22.3159ZM18.2263 22.7387L18.3206 22.7923L18.2263 22.7387ZM18.7477 23.0353L18.842 23.089V23.089L18.7477 23.0353ZM16.0923 27.7014L15.998 27.6478L16.0923 27.7014ZM15.6833 27.8137L15.7369 27.7195H15.7369L15.6833 27.8137ZM15.571 27.4047L15.4767 27.3511L15.571 27.4047ZM11.2546 20.4085L11.2376 20.3014L11.2546 20.4085ZM10.9114 20.1593L10.8042 20.1763L10.9114 20.1593ZM16.2353 19.6178L16.2183 19.5107L16.2353 19.6178ZM16.4845 19.2746L16.5917 19.2576L16.4845 19.2746ZM16.1413 19.0254L16.1583 19.1325L16.1413 19.0254ZM11.1606 19.816L11.1435 19.7089L11.1606 19.816ZM17.4938 21.2273L17.588 21.1735L17.4938 21.2273ZM17.0846 21.1158L17.0307 21.0216L17.0846 21.1158ZM17.3823 21.6365L17.3285 21.5424L17.3823 21.6365ZM12.7215 24.301L12.7753 24.3952L12.7215 24.301ZM12.3122 24.1895L12.2181 24.2433V24.2433L12.3122 24.1895ZM12.4237 23.7802L12.3699 23.6861H12.3699L12.4237 23.7802ZM32.759 8.09393L32.859 8.13604V8.13604L32.759 8.09393ZM35.5207 1.53891L35.6206 1.58102L35.6939 1.40715L35.5068 1.43134L35.5207 1.53891ZM32.6348 8.24859L32.5721 8.16008L32.6348 8.24859ZM30.2697 9.36424L30.3782 9.36379L30.3777 9.25533L30.2693 9.25578L30.2697 9.36424ZM28.1036 9.37322L28.1032 9.26476L27.9947 9.26521L27.9951 9.37367L28.1036 9.37322ZM28.1122 11.4521L28.1749 11.5406L28.2209 11.508L28.2207 11.4516L28.1122 11.4521ZM27.9693 11.5533L27.8609 11.5575L27.8687 11.7575L28.032 11.6418L27.9693 11.5533ZM27.9666 11.4246L27.8582 11.425V11.4251L27.9666 11.4246ZM27.972 11.1044L27.8636 11.1014L27.972 11.1044ZM27.9354 10.2756L27.8288 10.2958L27.8289 10.2959L27.9354 10.2756ZM27.5968 9.58612L27.6743 9.51032L27.4937 9.61983L27.5968 9.58612ZM27.4093 10.8157L27.3099 10.7724L27.3099 10.7724L27.4093 10.8157ZM27.3198 11.0162L27.4187 11.0609V11.0609L27.3198 11.0162ZM27.0633 12.1951L27.126 12.2836L27.1914 12.2373L27.1663 12.1611L27.0633 12.1951ZM25.3318 13.4215L25.2234 13.4215L25.2233 13.6313L25.3945 13.5101L25.3318 13.4215ZM24.7169 13.8571L24.7796 13.9456L24.8254 13.9132V13.8571H24.7169ZM24.6132 13.9306L24.6759 14.0191L24.6759 14.0191L24.6132 13.9306ZM24.0489 13.6352L23.9405 13.6332L24.0489 13.6352ZM32.8987 8.32855L32.8925 8.22026L32.8987 8.32855ZM40 7.92086L40.0967 7.96997L40.1821 7.80176L39.9938 7.81258L40 7.92086ZM32.7114 8.3938L32.7738 8.48251L32.7114 8.3938ZM30.6913 10.366L30.6199 10.4476L30.6199 10.4476L30.6913 10.366ZM31.032 10.7118L31.1039 10.793L31.1832 10.7229L31.115 10.6419L31.032 10.7118ZM30.8453 10.9529L30.9423 11.0016L30.9423 11.0015L30.8453 10.9529ZM30.7709 11.1831L30.6997 11.2649L30.8463 11.3925L30.8779 11.2008L30.7709 11.1831ZM30.2757 10.8113L30.333 10.7192L30.1664 10.6156L30.1672 10.8118L30.2757 10.8113ZM30.277 11.1291L30.1686 11.1295L30.1687 11.1741L30.2002 11.2056L30.277 11.1291ZM30.6274 11.5584L30.7044 11.6348L30.7663 11.5724L30.7181 11.499L30.6274 11.5584ZM30.626 11.5599L30.549 11.4835L30.5477 11.4848L30.626 11.5599ZM30.6095 11.5775L30.5302 11.5034L30.5282 11.5056L30.6095 11.5775ZM30.604 11.5837L30.5227 11.5118L30.5221 11.5125L30.604 11.5837ZM30.5991 11.5892L30.5173 11.5181L30.5171 11.5183L30.5991 11.5892ZM30.5918 11.5976L30.5108 11.5254L30.508 11.5288L30.5918 11.5976ZM30.5867 11.6039L30.5028 11.5351L30.5023 11.5357L30.5867 11.6039ZM30.571 11.6239L30.6561 11.6912L30.6581 11.6885L30.571 11.6239ZM30.5704 11.6246L30.4853 11.5573L30.4839 11.5591L30.5704 11.6246ZM30.562 11.6361L30.65 11.6995L30.6503 11.6991L30.562 11.6361ZM30.5561 11.6444L30.4678 11.5807L30.4631 11.5885L30.5561 11.6444ZM30.5518 11.6508L30.4643 11.5864L30.4611 11.5912L30.5518 11.6508ZM30.5417 11.6664L30.6326 11.7256L30.6341 11.7232L30.5417 11.6664ZM30.5405 11.6684L30.6312 11.7278L30.6313 11.7276L30.5405 11.6684ZM30.5377 11.6728L30.6304 11.729L30.6314 11.7274L30.5377 11.6728ZM30.5357 11.6761L30.6284 11.7324L30.6285 11.7323L30.5357 11.6761ZM30.525 11.6945L30.6197 11.7474L30.6208 11.7454L30.525 11.6945ZM30.4499 11.9897L30.3415 11.9902V11.9902L30.4499 11.9897ZM30.4501 12.0049L30.3417 12.0083L30.3418 12.0101L30.4501 12.0049ZM30.4509 12.0205L30.5594 12.02L30.5592 12.0153L30.4509 12.0205ZM30.4509 12.0232L30.3426 12.0285L30.3426 12.0286L30.4509 12.0232ZM30.4511 12.0251L30.5596 12.0182L30.5586 12.0107L30.4511 12.0251ZM30.4521 12.0399L30.5605 12.0321L30.5598 12.0269L30.4521 12.0399ZM30.4534 12.0546L30.3454 12.0653L30.3461 12.0704L30.4534 12.0546ZM30.4536 12.056L30.5614 12.0438L30.5609 12.0403L30.4536 12.056ZM30.4552 12.0689L30.5629 12.0559L30.5628 12.055L30.4552 12.0689ZM30.4556 12.0718L30.3479 12.0849L30.348 12.086L30.4556 12.0718ZM30.4565 12.0788L30.349 12.0929L30.349 12.0932L30.4565 12.0788ZM30.4572 12.0838L30.3495 12.0983L30.3507 12.1047L30.4572 12.0838ZM30.4575 12.0856L30.5648 12.0693L30.5639 12.0647L30.4575 12.0856ZM30.4623 12.1132L30.532 12.1963L30.5808 12.1553L30.5688 12.0927L30.4623 12.1132ZM30.2819 12.3078L30.1927 12.246L30.1733 12.2741L30.1734 12.3082L30.2819 12.3078ZM30.283 12.579L30.2835 12.6874L30.3919 12.687L30.3915 12.5785L30.283 12.579ZM28.311 12.5871L28.3106 12.4787L28.0694 12.4797L28.2302 12.6595L28.311 12.5871ZM28.9416 12.9851L28.9397 13.0936L28.9773 12.8827L28.9416 12.9851ZM28.1922 12.9167L28.2117 12.81L28.1922 12.9167ZM27.1659 12.3933L27.0783 12.4572L27.0783 12.4572L27.1659 12.3933ZM27.1222 12.3261L27.2161 12.2719L27.1567 12.1692L27.0597 12.2374L27.1222 12.3261ZM25.3318 13.5858L25.2694 13.4971L25.2234 13.5295V13.5858H25.3318ZM25.3318 14.8656H25.2234V14.9453L25.2994 14.9691L25.3318 14.8656ZM26.392 15.175L26.3639 15.2797L26.5005 15.3164L26.5005 15.175L26.392 15.175ZM26.6714 15.2481L26.5831 15.3111L26.6061 15.3434L26.6446 15.3532L26.6714 15.2481ZM24.7169 14.0184H24.8254V13.8094L24.6545 13.9297L24.7169 14.0184ZM24.7169 14.6629L24.6698 14.7606L24.8254 14.8356V14.6629H24.7169ZM24.6716 14.0502L24.734 14.1389L24.734 14.1389L24.6716 14.0502ZM28.113 11.6291L28.2214 11.6286L28.2206 11.4207L28.0505 11.5404L28.113 11.6291ZM28.1157 12.2815L28.0165 12.3254L28.2241 12.281L28.1157 12.2815ZM27.9804 11.7223L27.918 11.6336L27.8665 11.6698L27.8725 11.7326L27.9804 11.7223ZM32.0804 12.3417L31.9816 12.2969L31.9816 12.2969L32.0804 12.3417ZM32.3954 11.9871L32.4555 12.0774L32.4563 12.0768L32.3954 11.9871ZM32.0336 12.9143L32.1399 12.8929L32.1399 12.8928L32.0336 12.9143ZM32.037 12.931L31.9307 12.9525L31.9502 13.0491L32.0483 13.0389L32.037 12.931ZM32.9984 12.8304L33.0097 12.9383L33.194 12.919L33.087 12.7678L32.9984 12.8304ZM32.3997 11.9842L32.4883 11.9215L32.4269 11.8347L32.3389 11.8944L32.3997 11.9842ZM30.9967 11.029L31.0937 11.0776L31.0937 11.0775L30.9967 11.029ZM30.9575 11.5364L31.0027 11.635L31.0913 11.5945L31.0604 11.502L30.9575 11.5364ZM31.2826 10.741L31.3623 10.6674L31.3041 10.6044L31.2294 10.6465L31.2826 10.741ZM32.2963 11.8379L32.3563 11.9283L32.4624 11.8579L32.376 11.7643L32.2963 11.8379ZM32.089 12.0119L32.0097 11.9379L32.0095 11.9382L32.089 12.0119ZM31.9656 12.1756L31.8725 12.1199L31.8724 12.12L31.9656 12.1756ZM31.8925 12.3294L31.9942 12.3671L31.9942 12.367L31.8925 12.3294ZM31.8317 12.723L31.7233 12.7262V12.7262L31.8317 12.723ZM31.8581 12.9498L31.8583 13.0583L31.9907 13.058L31.9644 12.9283L31.8581 12.9498ZM30.3711 12.9523L30.2706 12.9933L30.2982 13.0609L30.3713 13.0608L30.3711 12.9523ZM30.337 12.5853L30.4421 12.6121L30.4421 12.6121L30.337 12.5853ZM30.6575 12.1771L30.7193 12.2662L30.7949 12.2137L30.7555 12.1306L30.6575 12.1771ZM30.6729 11.777L30.5782 11.7241L30.5781 11.7242L30.6729 11.777ZM33.163 8.42201L36.4844 8.23133L36.472 8.01476L33.1505 8.20545L33.163 8.42201ZM36.5681 8.06236C36.5374 8.01689 36.5034 7.97284 36.4661 7.93049L36.3033 8.0739C36.3345 8.10929 36.3628 8.14598 36.3883 8.18373L36.5681 8.06236ZM36.4661 7.93049C35.6767 7.03472 34.8163 6.21309 33.8961 5.47197L33.7601 5.64091C34.6707 6.37434 35.5222 7.18743 36.3033 8.0739L36.4661 7.93049ZM33.7281 5.51433L32.7009 7.95247L32.9008 8.03669L33.928 5.59855L33.7281 5.51433ZM32.7295 8.07627C32.8488 8.1804 32.9667 8.28615 33.0833 8.39352L33.2302 8.23394C33.1122 8.12529 32.9929 8.01827 32.8722 7.91289L32.7295 8.07627ZM27.1902 4.53012C26.9251 4.43154 26.6575 4.339 26.3876 4.25261L26.3215 4.45921C26.5882 4.54458 26.8526 4.63603 27.1146 4.73344L27.1902 4.53012ZM29.7169 2.89505C28.6715 3.35649 27.8009 3.90723 27.0802 4.55088L27.2246 4.71268C27.9262 4.08617 28.7769 3.54709 29.8045 3.0935L29.7169 2.89505ZM23.3432 1.22521C25.5745 1.503 27.7231 2.13951 29.7139 3.09211L29.8075 2.89643C27.7958 1.93384 25.6247 1.29065 23.37 1.00995L23.3432 1.22521ZM8.08409 5.42925C12.4117 2.05987 17.9006 0.547628 23.3432 1.22521L23.37 1.00995C17.8703 0.325261 12.3239 1.85336 7.95083 5.25809L8.08409 5.42925ZM0.266961 19.1918C0.944547 13.7492 3.75645 8.79864 8.08409 5.42925L7.95083 5.25809C3.57779 8.66282 0.736394 13.6653 0.0517018 19.165L0.266961 19.1918ZM3.72888 33.4355C0.882591 29.2819 -0.358671 24.2171 0.266961 19.1918L0.0517018 19.165C-0.580493 24.243 0.67379 29.3609 3.54993 33.5582L3.72888 33.4355ZM5.31638 33.6553C4.81122 34.0486 4.08578 33.9564 3.72888 33.4355L3.54993 33.5582C3.98242 34.1893 4.85289 34.291 5.44964 33.8264L5.31638 33.6553ZM5.54898 32.001C5.90967 32.537 5.81868 33.2642 5.31638 33.6553L5.44964 33.8264C6.04926 33.3596 6.14791 32.5024 5.72894 31.8799L5.54898 32.001ZM2.56093 19.4774C2.01164 23.8895 3.08254 28.3358 5.54898 32.001L5.72894 31.8799C3.29164 28.258 2.23339 23.8642 2.77619 19.5042L2.56093 19.4774ZM9.50423 7.25328C5.66035 10.246 3.16277 14.6432 2.56093 19.4774L2.77619 19.5042C3.37092 14.7271 5.83901 10.3818 9.63749 7.42444L9.50423 7.25328ZM10.7871 6.33997C10.3483 6.62484 9.92022 6.9294 9.50423 7.25328L9.63749 7.42444C10.0486 7.10438 10.4716 6.80341 10.9052 6.52191L10.7871 6.33997ZM10.7377 4.69796V6.43094H10.9546V4.69796H10.7377ZM12.4166 3.01908C11.4909 3.01908 10.7377 3.77202 10.7377 4.69796H10.9546C10.9546 3.89186 11.6107 3.23601 12.4166 3.23601V3.01908ZM24.8216 3.01908H12.4166V3.23601H24.8216V3.01908ZM26.4604 4.3323C26.293 3.58192 25.622 3.01908 24.8216 3.01908V3.23601C25.5181 3.23601 26.1029 3.726 26.2487 4.37952L26.4604 4.3323ZM14.8529 4.59325C15.5756 4.34322 16.3133 4.13908 17.0617 3.98207L17.0171 3.76977C16.2598 3.92866 15.5133 4.13523 14.782 4.38825L14.8529 4.59325ZM12.8434 4.59921H14.8175V4.38229H12.8434V4.59921ZM12.8434 3.76746C12.7123 3.76746 12.6062 3.81837 12.5342 3.90044C12.464 3.98041 12.4313 4.08375 12.4313 4.18334C12.4313 4.28294 12.464 4.38627 12.5342 4.46623C12.6062 4.54829 12.7123 4.59921 12.8434 4.59921V4.38229C12.7721 4.38229 12.7264 4.35635 12.6972 4.32313C12.6662 4.28781 12.6483 4.23744 12.6483 4.18333C12.6483 4.12922 12.6662 4.07885 12.6972 4.04354C12.7263 4.01033 12.7721 3.98438 12.8434 3.98438V3.76746ZM17.0394 3.76746H12.8434V3.98438H17.0394V3.76746ZM30.3347 10.0108L31.1888 9.40578L31.0634 9.22876L30.2093 9.83374L30.3347 10.0108ZM31.321 9.3377C31.2791 9.3027 31.237 9.26791 31.1948 9.23334L31.0574 9.4012C31.0991 9.43532 31.1406 9.46964 31.1819 9.50417L31.321 9.3377ZM30.3803 10.1664L31.3139 9.50964L31.189 9.33222L30.2555 9.98903L30.3803 10.1664ZM30.2128 10.1379C30.2276 10.1476 30.2423 10.1575 30.2569 10.1674L30.3789 9.98803C30.3634 9.97751 30.3479 9.96711 30.3323 9.95681L30.2128 10.1379ZM30.1636 9.9227L30.1641 10.0478L30.381 10.0469L30.3805 9.9218L30.1636 9.9227ZM5.41771 26.22C5.24654 25.6162 5.64825 25.0078 6.2748 24.882L6.23207 24.6693C5.4929 24.8178 5.00026 25.5428 5.20902 26.2791L5.41771 26.22ZM8.62146 32.2299C7.13334 30.4748 6.04267 28.4245 5.41771 26.22L5.20902 26.2791C5.84241 28.5134 6.9478 30.5914 8.45601 32.3702L8.62146 32.2299ZM15.1794 36.8626C12.6366 35.8981 10.3802 34.3041 8.62146 32.2299L8.45601 32.3702C10.2385 34.4724 12.5254 36.0879 15.1025 37.0654L15.1794 36.8626ZM23.1601 37.7444C20.4681 38.1305 17.7222 37.8271 15.1794 36.8626L15.1025 37.0654C17.6796 38.0429 20.4626 38.3504 23.1909 37.9592L23.1601 37.7444ZM30.5713 34.6552C28.4021 36.2954 25.8521 37.3584 23.1601 37.7444L23.1909 37.9592C25.9192 37.5679 28.5036 36.4906 30.7021 34.8282L30.5713 34.6552ZM33.2456 32.0992C32.4586 33.0475 31.5621 33.906 30.5713 34.6552L30.7021 34.8282C31.7063 34.0689 32.6149 33.1989 33.4125 32.2377L33.2456 32.0992ZM36.3639 34.7206L33.4011 32.0873L33.257 32.2495L36.2198 34.8827L36.3639 34.7206ZM39.5468 30.976L36.2107 34.7296L36.3729 34.8737L39.709 31.1201L39.5468 30.976ZM34.8435 30.0706L39.6038 31.1538L39.652 30.9423L34.8916 29.8591L34.8435 30.0706ZM35.5628 28.366C35.3272 28.8961 35.0636 29.4115 34.7738 29.9103L34.9614 30.0193C35.2551 29.5137 35.5222 28.9914 35.7611 28.4542L35.5628 28.366ZM36.8887 20.447C37.124 23.1564 36.6678 25.8811 35.5628 28.366L35.7611 28.4542C36.8809 25.9357 37.3432 23.1742 37.1049 20.4282L36.8887 20.447ZM35.0584 14.2746C36.076 16.1826 36.7007 18.2816 36.8887 20.447L37.1049 20.4282C36.9143 18.2336 36.2811 16.1062 35.2498 14.1725L35.0584 14.2746ZM32.9366 15.4671C33.7277 15.214 34.4853 14.8344 35.2171 14.3118L35.0911 14.1352C34.3768 14.6453 33.6394 15.0145 32.8705 15.2605L32.9366 15.4671ZM34.592 20.6464C34.4295 18.7738 33.8856 16.9592 32.9991 15.3124L32.8081 15.4152C33.6806 17.036 34.2159 18.8221 34.3759 20.6652L34.592 20.6464ZM33.4564 27.4294C34.4028 25.3009 34.7935 22.9671 34.592 20.6464L34.3759 20.6652C34.5742 22.9493 34.1896 25.2463 33.2581 27.3413L33.4564 27.4294ZM29.1808 32.8164C31.0389 31.4114 32.5099 29.5579 33.4564 27.4294L33.2581 27.3413C32.3266 29.4362 30.8787 31.2605 29.05 32.6433L29.1808 32.8164ZM26.525 34.3905C27.4629 33.9687 28.3541 33.4415 29.1808 32.8164L29.05 32.6433C28.2363 33.2586 27.3591 33.7775 26.436 34.1927L26.525 34.3905ZM26.0289 35.5323L26.5791 34.3369L26.382 34.2462L25.8318 35.4416L26.0289 35.5323ZM25.4444 35.3564C25.582 35.4075 25.7241 35.4796 25.8701 35.5771L25.9906 35.3968C25.8315 35.2905 25.6745 35.2104 25.52 35.153L25.4444 35.3564ZM25.0965 35.2662C25.209 35.2826 25.3252 35.3117 25.4442 35.3563L25.5202 35.1531C25.3867 35.1031 25.2555 35.0702 25.1278 35.0516L25.0965 35.2662ZM24.799 35.2512C24.8956 35.2473 24.9948 35.2515 25.0966 35.2663L25.1278 35.0516C25.0118 35.0347 24.8992 35.03 24.7902 35.0344L24.799 35.2512ZM24.4774 35.2949C24.5798 35.2707 24.6873 35.2555 24.7988 35.2512L24.7905 35.0344C24.6646 35.0392 24.5432 35.0564 24.4275 35.0838L24.4774 35.2949ZM24.1179 35.4186C24.23 35.3679 24.3499 35.3248 24.4772 35.2949L24.4277 35.0837C24.2846 35.1173 24.1513 35.1655 24.0285 35.221L24.1179 35.4186ZM23.7618 35.6173C23.8661 35.547 23.9857 35.4779 24.1176 35.4188L24.0288 35.2208C23.8842 35.2857 23.7538 35.3611 23.6406 35.4374L23.7618 35.6173ZM23.4748 35.2663L23.6011 35.5691L23.8013 35.4856L23.675 35.1828L23.4748 35.2663ZM22.8328 35.4624C23.0889 35.4257 23.3435 35.3818 23.5964 35.3309L23.5535 35.1183C23.3047 35.1684 23.0541 35.2116 22.802 35.2477L22.8328 35.4624ZM15.997 34.7071C18.175 35.5333 20.527 35.7931 22.8328 35.4624L22.802 35.2477C20.5326 35.5732 18.2176 35.3174 16.0739 34.5043L15.997 34.7071ZM10.3798 30.739C11.8863 32.5157 13.819 33.881 15.997 34.7071L16.0739 34.5043C13.9303 33.6912 12.028 32.3474 10.5453 30.5987L10.3798 30.739ZM7.69107 25.7815C8.23425 27.5975 9.14808 29.2863 10.3798 30.739L10.5453 30.5987C9.33294 29.1689 8.43351 27.5067 7.8989 25.7193L7.69107 25.7815ZM6.2748 24.882C6.89671 24.757 7.50571 25.1618 7.69107 25.7815L7.8989 25.7193C7.68507 25.0044 6.97587 24.5198 6.23207 24.6693L6.2748 24.882ZM31.9485 12.5501C31.9495 12.5422 31.9508 12.5341 31.9521 12.5259L31.738 12.4909C31.7364 12.5007 31.7349 12.5108 31.7335 12.5209L31.9485 12.5501ZM31.7361 12.503C31.7352 12.509 31.7343 12.515 31.7335 12.5209L31.9485 12.5501C31.9491 12.5453 31.9498 12.5404 31.9505 12.5356L31.7361 12.503ZM31.738 12.4909C31.7375 12.4943 31.7368 12.4986 31.7361 12.503L31.9505 12.5357C31.951 12.5328 31.9515 12.5298 31.9521 12.5259L31.738 12.4909ZM24.9048 35.5839C25.1634 35.5921 25.4251 35.6813 25.684 35.8546L25.8047 35.6744C25.5178 35.4824 25.2173 35.3767 24.9116 35.3671L24.9048 35.5839ZM23.9486 35.8943C24.1736 35.7427 24.5173 35.5716 24.9048 35.5839L24.9116 35.3671C24.4587 35.3527 24.0694 35.5513 23.8274 35.7144L23.9486 35.8943ZM23.9219 35.9122L23.9485 35.8943L23.8275 35.7143L23.8009 35.7321L23.9219 35.9122ZM24.818 37.3548L23.9567 35.7703L23.7661 35.8739L24.6274 37.4584L24.818 37.3548ZM25.6605 35.7121L24.6309 37.3488L24.8145 37.4643L25.8441 35.8276L25.6605 35.7121ZM25.6835 35.8543L25.6915 35.8597L25.8131 35.6801L25.8052 35.6747L25.6835 35.8543ZM13.1206 15.1307C15.1176 17.1338 18.7549 15.9742 19.0602 12.9875L18.8444 12.9654C18.5583 15.7644 15.1462 16.8552 13.2743 14.9775L13.1206 15.1307ZM12.6067 15.3827L13.2343 15.1561L13.1606 14.9521L12.5331 15.1787L12.6067 15.3827ZM17.5272 16.0092C15.9067 16.9448 13.8598 16.5843 12.6514 15.2091L12.4884 15.3523C13.7644 16.8044 15.9246 17.185 17.6357 16.1971L17.5272 16.0092ZM19.4702 12.7471C19.4325 14.0239 18.7838 15.2836 17.5272 16.0092L17.6357 16.1971C18.9625 15.4309 19.6473 14.0994 19.6871 12.7535L19.4702 12.7471ZM18.9891 13.0785L19.6155 12.8523L19.5418 12.6483L18.9155 12.8744L18.9891 13.0785ZM24.8254 16.324V12.5074H24.6085V16.324H24.8254ZM25.0244 16.5231C24.9145 16.5231 24.8254 16.434 24.8254 16.324H24.6085C24.6085 16.5538 24.7947 16.74 25.0244 16.74V16.5231ZM25.2234 16.324C25.2234 16.4339 25.1341 16.5231 25.0244 16.5231V16.74C25.2539 16.74 25.4403 16.5538 25.4403 16.324H25.2234ZM25.2234 13.3697V16.324H25.4403V13.3697H25.2234ZM23.2041 11.6936C23.4034 11.7027 23.5991 11.7469 23.7822 11.8234L23.8658 11.6232C23.6595 11.537 23.4388 11.4872 23.214 11.4769L23.2041 11.6936ZM23.3175 16.324V11.5852H23.1006V16.324H23.3175ZM23.5165 16.5231C23.4066 16.5231 23.3175 16.434 23.3175 16.324H23.1006C23.1006 16.5538 23.2868 16.74 23.5165 16.74V16.5231ZM23.7155 16.3239C23.7154 16.4341 23.6263 16.5231 23.5165 16.5231V16.74C23.7463 16.74 23.9322 16.5537 23.9324 16.3242L23.7155 16.3239ZM23.7155 11.7233V16.324H23.9324V11.7233H23.7155ZM26.3037 14.9194L28.4081 17.8703L28.5847 17.7443L26.4803 14.7934L26.3037 14.9194ZM26.5005 17.1031V14.8564H26.2836V17.1031H26.5005ZM24.8215 18.7818C25.7473 18.7818 26.5005 18.0288 26.5005 17.1031H26.2836C26.2836 17.9089 25.6275 18.5648 24.8215 18.5648V18.7818ZM12.4166 18.7818H24.8215V18.5648H12.4166V18.7818ZM10.7376 17.1031C10.7376 18.0288 11.4907 18.7818 12.4166 18.7818V18.5648C11.6105 18.5648 10.9545 17.9089 10.9545 17.1031H10.7376ZM10.7376 15.903V17.1031H10.9545V15.903H10.7376ZM8.42465 16.8925L10.8829 16.005L10.8092 15.801L8.35099 16.6885L8.42465 16.8925ZM7.61818 19.4774C6.96489 18.5613 7.36632 17.2746 8.42465 16.8925L8.35099 16.6885C7.15756 17.1194 6.70488 18.5702 7.44157 19.6033L7.61818 19.4774ZM15.4622 30.477L7.61818 19.4774L7.44157 19.6033L15.2855 30.6029L15.4622 30.477ZM18.0731 30.6654C17.3362 31.4352 16.0809 31.3446 15.4622 30.477L15.2855 30.6029C15.9832 31.5813 17.3989 31.6834 18.2298 30.8154L18.0731 30.6654ZM22.1877 26.367L18.0731 30.6654L18.2298 30.8154L22.3444 26.517L22.1877 26.367ZM21.9994 26.2864C22.0636 26.3559 22.1231 26.4291 22.178 26.5054L22.3541 26.3787C22.2942 26.2954 22.2291 26.2154 22.1588 26.1392L21.9994 26.2864ZM20.9063 25.6305C21.3152 25.8002 21.6987 25.9609 21.9994 26.2864L22.1588 26.1392C21.8209 25.7735 21.3923 25.5973 20.9895 25.4302L20.9063 25.6305ZM19.8927 25.0717C20.2 25.3385 20.5627 25.488 20.9063 25.6305L20.9895 25.4302C20.6408 25.2855 20.3114 25.1479 20.0348 24.9079L19.8927 25.0717ZM19.4083 22.7799C19.1143 23.5614 19.2246 24.4918 19.8927 25.0717L20.0349 24.9079C19.4518 24.4018 19.3408 23.5753 19.6113 22.8563L19.4083 22.7799ZM21.8539 24.6607C21.3057 24.6316 20.7395 24.4672 20.315 24.1612C19.8937 23.8577 19.6124 23.4162 19.6183 22.8192L19.4014 22.817C19.3947 23.4951 19.7189 23.999 20.1881 24.3372C20.6541 24.673 21.2633 24.8465 21.8423 24.8773L21.8539 24.6607ZM23.3824 25.2751C23.0106 24.9227 22.5118 24.6959 21.8539 24.6607L21.8423 24.8773C22.4527 24.9099 22.9015 25.1182 23.2331 25.4325L23.3824 25.2751ZM23.6479 24.8417L23.2294 25.2788L23.3861 25.4288L23.8046 24.9917L23.6479 24.8417ZM22.7255 24.5116C23.1354 24.6357 23.435 24.7975 23.6531 24.9967L23.7994 24.8366C23.5509 24.6095 23.2196 24.4345 22.7883 24.304L22.7255 24.5116ZM22.4011 24.4183C22.5151 24.4503 22.6238 24.4808 22.7255 24.5116L22.7883 24.304C22.6841 24.2724 22.5732 24.2413 22.4597 24.2095L22.4011 24.4183ZM20.3637 22.5174C20.3224 22.8341 20.3699 23.1004 20.485 23.3247C20.5995 23.5479 20.7771 23.7218 20.9844 23.8612C21.3949 24.1372 21.9418 24.2895 22.4011 24.4183L22.4597 24.2095C21.9918 24.0783 21.4815 23.934 21.1054 23.6812C20.9194 23.5561 20.7714 23.4076 20.678 23.2256C20.5852 23.0448 20.5425 22.8235 20.5788 22.5455L20.3637 22.5174ZM23.1316 23.6929C22.5652 23.6688 21.9855 23.6433 21.5134 23.4838C21.0495 23.3271 20.7014 23.0454 20.577 22.507L20.3656 22.5559C20.5112 23.1859 20.9287 23.5152 21.444 23.6893C21.9512 23.8607 22.5643 23.8859 23.1224 23.9096L23.1316 23.6929ZM24.2584 23.7963C23.9309 23.7266 23.5337 23.71 23.1316 23.6929L23.1224 23.9096C23.5301 23.927 23.9072 23.9433 24.2131 24.0085L24.2584 23.7963ZM24.6341 23.9113C24.5192 23.8638 24.3942 23.8253 24.2583 23.7963L24.2132 24.0085C24.3371 24.0349 24.4494 24.0697 24.5513 24.1118L24.6341 23.9113ZM24.7001 23.7424L24.5143 23.9365L24.671 24.0865L24.8568 23.8924L24.7001 23.7424ZM24.8426 23.73C24.7304 23.6477 24.6074 23.572 24.473 23.5035L24.3745 23.6968C24.499 23.7602 24.612 23.8298 24.7143 23.9049L24.8426 23.73ZM24.473 23.5035C24.1782 23.3532 23.8826 23.2533 23.6033 23.1587L23.5337 23.3641C23.8149 23.4593 24.0958 23.5546 24.3744 23.6967L24.473 23.5035ZM23.6033 23.1587C23.0195 22.961 22.5041 22.7842 22.0999 22.2303L21.9246 22.3582C22.3739 22.9737 22.9534 23.1676 23.5337 23.3641L23.6033 23.1587ZM22.0998 22.2302C21.8529 21.8925 21.6779 21.4883 21.604 21.0769L21.3905 21.1152C21.4703 21.5597 21.6588 21.9944 21.9247 22.3582L22.0998 22.2302ZM21.3964 21.1359C21.6316 21.7315 22.222 22.1012 22.8518 22.34C23.4855 22.5804 24.1861 22.6984 24.6791 22.7734L24.7118 22.559C24.2194 22.484 23.5389 22.3686 22.9287 22.1372C22.3147 21.9044 21.7987 21.564 21.5981 21.0562L21.3964 21.1359ZM24.6791 22.7734C25.0238 22.8259 25.3231 22.9134 25.5825 23.03L25.6714 22.8321C25.392 22.7065 25.0734 22.614 24.7117 22.559L24.6791 22.7734ZM28.2521 20.0319L25.5486 22.856L25.7053 23.006L28.4088 20.1819L28.2521 20.0319ZM28.4081 17.8703C28.8819 18.5348 28.8164 19.4423 28.2521 20.0319L28.4088 20.1819C29.0452 19.517 29.119 18.4937 28.5847 17.7443L28.4081 17.8703ZM22.2074 16.324C22.2073 16.4341 22.1182 16.5231 22.0086 16.5231V16.74C22.2383 16.74 22.4241 16.5537 22.4244 16.3242L22.2074 16.324ZM22.2074 12.9681V16.3241H22.4244V12.9681H22.2074ZM21.8094 12.9681C21.8094 12.8968 21.8354 12.8511 21.8686 12.8219C21.9039 12.7909 21.9543 12.7729 22.0085 12.7729C22.0626 12.7729 22.113 12.7909 22.1483 12.8219C22.1815 12.851 22.2074 12.8968 22.2074 12.9681H22.4244C22.4244 12.837 22.3735 12.7309 22.2914 12.6588C22.2114 12.5886 22.108 12.556 22.0084 12.556C21.9088 12.556 21.8055 12.5887 21.7255 12.6589C21.6434 12.7309 21.5925 12.837 21.5925 12.9681H21.8094ZM21.8094 16.324V12.9681H21.5925V16.324H21.8094ZM22.0086 16.5231C21.8985 16.5231 21.8094 16.4339 21.8094 16.324H21.5925C21.5925 16.5538 21.7788 16.74 22.0086 16.74V16.5231ZM18.689 22.5321C18.493 22.4205 18.2436 22.489 18.1321 22.685L18.3206 22.7923C18.3729 22.7004 18.4898 22.6683 18.5817 22.7206L18.689 22.5321ZM18.842 23.089C18.9535 22.893 18.885 22.6436 18.689 22.5321L18.5817 22.7206C18.6736 22.7729 18.7057 22.8898 18.6534 22.9817L18.842 23.089ZM16.1866 27.7551L18.842 23.089L18.6534 22.9817L15.998 27.6478L16.1866 27.7551ZM15.6296 27.908C15.8257 28.0196 16.075 27.9511 16.1866 27.7551L15.998 27.6478C15.9457 27.7397 15.8288 27.7718 15.7369 27.7195L15.6296 27.908ZM15.4767 27.3511C15.3651 27.5471 15.4336 27.7964 15.6296 27.908L15.7369 27.7195C15.645 27.6672 15.6129 27.5503 15.6652 27.4584L15.4767 27.3511ZM18.1321 22.685L15.4767 27.3511L15.6652 27.4584L18.3206 22.7923L18.1321 22.685ZM11.2376 20.3014C11.1332 20.3179 11.0351 20.2467 11.0185 20.1423L10.8042 20.1763C10.8396 20.399 11.0488 20.551 11.2716 20.5156L11.2376 20.3014ZM16.2183 19.5107L11.2376 20.3014L11.2716 20.5156L16.2524 19.7249L16.2183 19.5107ZM16.3774 19.2916C16.394 19.396 16.3228 19.4941 16.2183 19.5107L16.2524 19.7249C16.4751 19.6896 16.627 19.4803 16.5917 19.2576L16.3774 19.2916ZM16.1583 19.1325C16.2627 19.1159 16.3608 19.1871 16.3774 19.2916L16.5917 19.2576C16.5563 19.0348 16.3471 18.8829 16.1243 18.9183L16.1583 19.1325ZM11.1776 19.9232L16.1583 19.1325L16.1243 18.9183L11.1435 19.7089L11.1776 19.9232ZM11.0185 20.1423C11.0019 20.0378 11.0731 19.9397 11.1776 19.9232L11.1435 19.7089C10.9208 19.7443 10.7689 19.9535 10.8042 20.1763L11.0185 20.1423ZM17.588 21.1735C17.476 20.9777 17.2266 20.9097 17.0307 21.0216L17.1384 21.2099C17.2302 21.1574 17.3472 21.1893 17.3997 21.2811L17.588 21.1735ZM17.4361 21.7307C17.6319 21.6188 17.6999 21.3693 17.588 21.1735L17.3997 21.2811C17.4521 21.3729 17.4203 21.4899 17.3285 21.5424L17.4361 21.7307ZM12.7753 24.3952L17.4361 21.7307L17.3285 21.5424L12.6676 24.2069L12.7753 24.3952ZM12.2181 24.2433C12.33 24.4391 12.5795 24.5071 12.7753 24.3952L12.6676 24.2069C12.5758 24.2593 12.4589 24.2275 12.4064 24.1357L12.2181 24.2433ZM12.3699 23.6861C12.1741 23.798 12.1061 24.0475 12.2181 24.2433L12.4064 24.1357C12.3539 24.0439 12.3858 23.9269 12.4776 23.8744L12.3699 23.6861ZM17.0307 21.0216L12.3699 23.6861L12.4776 23.8744L17.1384 21.2099L17.0307 21.0216ZM32.859 8.13604L35.6206 1.58102L35.4207 1.4968L32.6591 8.05182L32.859 8.13604ZM32.6975 8.33709C32.769 8.28644 32.825 8.2168 32.859 8.13604L32.6591 8.05182C32.6408 8.09531 32.6106 8.13281 32.5721 8.16008L32.6975 8.33709ZM30.3347 10.0108L32.6975 8.33709L32.5721 8.16008L30.2093 9.83374L30.3347 10.0108ZM30.1612 9.36469L30.1636 9.9227L30.3805 9.9218L30.3782 9.36379L30.1612 9.36469ZM28.1041 9.48168L30.2701 9.4727L30.2693 9.25578L28.1032 9.26476L28.1041 9.48168ZM28.2207 11.4516L28.2121 9.37277L27.9951 9.37367L28.0038 11.4525L28.2207 11.4516ZM28.032 11.6418L28.1749 11.5406L28.0495 11.3636L27.9066 11.4648L28.032 11.6418ZM27.8582 11.4251C27.8584 11.4689 27.8592 11.5131 27.8609 11.5575L28.0777 11.5491C28.0761 11.5074 28.0753 11.4657 28.0751 11.424L27.8582 11.4251ZM27.8636 11.1014C27.8607 11.2079 27.8577 11.3165 27.8582 11.425L28.0751 11.4241C28.0746 11.3196 28.0775 11.2145 28.0805 11.1073L27.8636 11.1014ZM27.8289 10.2959C27.8782 10.5548 27.8713 10.8212 27.8636 11.1014L28.0805 11.1073C28.088 10.8312 28.0964 10.5412 28.0419 10.2553L27.8289 10.2959ZM27.5192 9.66193C27.6784 9.82481 27.7837 10.0579 27.8288 10.2958L28.042 10.2554C27.9909 9.98629 27.8702 9.71075 27.6743 9.51032L27.5192 9.66193ZM27.5088 10.859C27.6847 10.4555 27.8468 10.0019 27.6999 9.55242L27.4937 9.61983C27.6125 9.98339 27.4868 10.3664 27.3099 10.7724L27.5088 10.859ZM27.4187 11.0609C27.4486 10.9946 27.4791 10.927 27.5088 10.859L27.3099 10.7724C27.2809 10.8389 27.251 10.9051 27.221 10.9716L27.4187 11.0609ZM27.1663 12.1611C27.1174 12.0131 27.1289 11.8481 27.1808 11.6609C27.2329 11.4728 27.3223 11.2743 27.4187 11.0609L27.221 10.9716C27.1263 11.1812 27.0292 11.3956 26.9717 11.603C26.914 11.8112 26.8926 12.0241 26.9603 12.2291L27.1663 12.1611ZM25.3945 13.5101L27.126 12.2836L27.0006 12.1066L25.2691 13.333L25.3945 13.5101ZM25.4403 13.4216L25.4403 13.3697L25.2234 13.3697L25.2234 13.4215L25.4403 13.4216ZM24.6085 12.5074L24.6085 13.8571L24.8254 13.8571L24.8254 12.5074H24.6085ZM24.6759 14.0191L24.7796 13.9456L24.6542 13.7686L24.5505 13.8421L24.6759 14.0191ZM23.9405 13.6332C23.9331 14.0175 24.3652 14.2391 24.6759 14.0191L24.5505 13.8421C24.382 13.9614 24.1535 13.84 24.1574 13.6373L23.9405 13.6332ZM35.5068 1.43134C30.9341 2.02243 28.0682 3.28868 26.3321 5.31335C24.5964 7.33747 24.0085 10.0985 23.9405 13.6332L24.1574 13.6373C24.2251 10.1176 24.8113 7.42017 26.4967 5.45455C28.1817 3.48948 30.9838 2.23473 35.5346 1.64647L35.5068 1.43134ZM32.9049 8.43683L40.0062 8.02914L39.9938 7.81258L32.8925 8.22026L32.9049 8.43683ZM32.7738 8.48251C32.8124 8.45536 32.8578 8.43953 32.9049 8.43683L32.8925 8.22026C32.805 8.22529 32.7206 8.25467 32.6489 8.3051L32.7738 8.48251ZM30.3803 10.1664L32.7738 8.48251L32.6489 8.3051L30.2555 9.98903L30.3803 10.1664ZM30.7627 10.2843C30.6408 10.1778 30.5126 10.0789 30.3789 9.98803L30.2569 10.1674C30.3835 10.2534 30.5048 10.347 30.6199 10.4476L30.7627 10.2843ZM31.115 10.6419C31.0065 10.5132 30.8874 10.3934 30.7627 10.2843L30.6199 10.4476C30.737 10.55 30.8482 10.662 30.9491 10.7817L31.115 10.6419ZM30.9423 11.0015C30.9813 10.9236 31.0352 10.8539 31.1039 10.793L30.9601 10.6306C30.8716 10.7091 30.8003 10.8007 30.7484 10.9044L30.9423 11.0015ZM30.8779 11.2008C30.8896 11.13 30.9111 11.0636 30.9423 11.0016L30.7484 10.9043C30.7072 10.9863 30.6791 11.0737 30.6639 11.1654L30.8779 11.2008ZM30.2184 10.9034C30.3875 11.0086 30.5466 11.1316 30.6997 11.2649L30.8421 11.1013C30.6829 10.9627 30.5145 10.8321 30.333 10.7192L30.2184 10.9034ZM30.3855 11.1286L30.3842 10.8109L30.1672 10.8118L30.1686 11.1295L30.3855 11.1286ZM30.7181 11.499C30.6606 11.4112 30.5436 11.2431 30.3539 11.0526L30.2002 11.2056C30.3762 11.3824 30.4842 11.5379 30.5367 11.6179L30.7181 11.499ZM30.703 11.6362L30.7044 11.6348L30.5504 11.4821L30.549 11.4835L30.703 11.6362ZM30.6887 11.6515C30.6942 11.6456 30.6993 11.6402 30.7044 11.6349L30.5477 11.4848C30.5416 11.4913 30.5356 11.4976 30.5302 11.5034L30.6887 11.6515ZM30.6852 11.6555L30.6907 11.6493L30.5282 11.5056L30.5227 11.5118L30.6852 11.6555ZM30.681 11.6604L30.6858 11.6548L30.5221 11.5125L30.5173 11.5181L30.681 11.6604ZM30.6728 11.6698C30.6759 11.6663 30.6788 11.6629 30.6812 11.6602L30.5171 11.5183C30.5146 11.5212 30.5127 11.5233 30.5108 11.5254L30.6728 11.6698ZM30.6705 11.6727L30.6756 11.6664L30.508 11.5288L30.5028 11.5351L30.6705 11.6727ZM30.6581 11.6885C30.6617 11.6836 30.6655 11.6788 30.671 11.672L30.5023 11.5357C30.4972 11.542 30.4905 11.5503 30.4838 11.5593L30.6581 11.6885ZM30.6555 11.6918L30.6561 11.6911L30.4859 11.5566L30.4853 11.5573L30.6555 11.6918ZM30.6503 11.6991C30.6532 11.6951 30.6551 11.6924 30.6569 11.69L30.4839 11.5591C30.48 11.5643 30.4764 11.5694 30.4738 11.5731L30.6503 11.6991ZM30.6441 11.7078L30.65 11.6995L30.4741 11.5726L30.4681 11.5809L30.6441 11.7078ZM30.6392 11.715C30.6425 11.7105 30.6458 11.7056 30.6491 11.7002L30.4631 11.5885C30.4636 11.5876 30.4641 11.5869 30.4644 11.5865L30.6392 11.715ZM30.6341 11.7232C30.6364 11.7195 30.6389 11.7156 30.6425 11.7103L30.4611 11.5912C30.4578 11.5962 30.4536 11.6027 30.4493 11.6097L30.6341 11.7232ZM30.6313 11.7276L30.6326 11.7256L30.4508 11.6073L30.4496 11.6092L30.6313 11.7276ZM30.6314 11.7274L30.6312 11.7278L30.4497 11.609C30.4491 11.61 30.4465 11.6138 30.4439 11.6182L30.6314 11.7274ZM30.6285 11.7323L30.6304 11.729L30.4449 11.6167L30.4429 11.6199L30.6285 11.7323ZM30.6208 11.7454C30.6224 11.7423 30.6245 11.7388 30.6284 11.7324L30.4429 11.6199C30.4395 11.6255 30.4342 11.6342 30.4292 11.6436L30.6208 11.7454ZM30.5584 11.9893C30.558 11.9016 30.5787 11.8207 30.6197 11.7474L30.4303 11.6416C30.3706 11.7485 30.3409 11.8663 30.3415 11.9902L30.5584 11.9893ZM30.5585 12.0016C30.5584 11.9984 30.5584 11.9947 30.5584 11.9892L30.3415 11.9902C30.3415 11.9949 30.3415 12.0016 30.3417 12.0083L30.5585 12.0016ZM30.5592 12.0178C30.5593 12.0198 30.5593 12.0214 30.5593 12.02L30.3424 12.021C30.3424 12.0213 30.3424 12.0248 30.3426 12.0285L30.5592 12.0178ZM30.5586 12.0107C30.559 12.0137 30.5592 12.0162 30.5592 12.0178L30.3426 12.0286C30.3427 12.0315 30.343 12.0352 30.3436 12.0395L30.5586 12.0107ZM30.5596 12.0234L30.5593 12.0183L30.3428 12.0319L30.3432 12.0371L30.5596 12.0234ZM30.5602 12.0327C30.56 12.0287 30.5597 12.0248 30.5596 12.0229L30.3432 12.0376C30.3433 12.0389 30.3433 12.0396 30.3434 12.0403C30.3434 12.0406 30.3434 12.0408 30.3434 12.041C30.3434 12.0411 30.3434 12.0411 30.3434 12.0412C30.3434 12.0412 30.3434 12.0412 30.3434 12.0412L30.5602 12.0327ZM30.5598 12.0269L30.5595 12.024L30.3441 12.0499L30.3445 12.0528L30.5598 12.0269ZM30.5613 12.044C30.5609 12.0398 30.5606 12.036 30.5603 12.0321L30.344 12.0476C30.3444 12.0537 30.3449 12.0595 30.3455 12.0653L30.5613 12.044ZM30.5609 12.0403L30.5607 12.0389L30.3461 12.0704L30.3463 12.0718L30.5609 12.0403ZM30.5628 12.055C30.5622 12.0506 30.5618 12.0471 30.5614 12.0438L30.3459 12.0683C30.3465 12.0735 30.3471 12.0786 30.3477 12.0828L30.5628 12.055ZM30.5632 12.0587L30.5629 12.0559L30.3475 12.082L30.3479 12.0849L30.5632 12.0587ZM30.564 12.0646L30.5631 12.0576L30.348 12.086L30.349 12.0929L30.564 12.0646ZM30.5647 12.0694L30.564 12.0644L30.349 12.0932L30.3497 12.0982L30.5647 12.0694ZM30.5639 12.0647L30.5636 12.063L30.3507 12.1047L30.3511 12.1064L30.5639 12.0647ZM30.5688 12.0927C30.5673 12.0852 30.566 12.0775 30.5647 12.0694L30.3503 12.1018C30.3519 12.1129 30.3538 12.1234 30.3557 12.1337L30.5688 12.0927ZM30.3711 12.3695C30.4124 12.3099 30.4657 12.252 30.532 12.1963L30.3925 12.0302C30.3134 12.0966 30.2464 12.1686 30.1927 12.246L30.3711 12.3695ZM30.3915 12.5785L30.3904 12.3073L30.1734 12.3082L30.1746 12.5794L30.3915 12.5785ZM28.3115 12.6956L30.2835 12.6874L30.2826 12.4705L28.3106 12.4787L28.3115 12.6956ZM28.9773 12.8827C28.7516 12.804 28.5428 12.6836 28.3918 12.5148L28.2302 12.6595C28.4125 12.8633 28.6566 13.0007 28.906 13.0875L28.9773 12.8827ZM28.1727 13.0234C28.4253 13.0695 28.6898 13.089 28.9397 13.0936L28.9436 12.8767C28.7015 12.8723 28.4494 12.8534 28.2117 12.81L28.1727 13.0234ZM27.0783 12.4572C27.3147 12.7816 27.7374 12.944 28.1727 13.0234L28.2117 12.81C27.7916 12.7334 27.4394 12.5845 27.2536 12.3295L27.0783 12.4572ZM27.0282 12.3804C27.0433 12.4064 27.0599 12.432 27.0783 12.4572L27.2536 12.3295C27.2397 12.3104 27.2272 12.2912 27.2161 12.2719L27.0282 12.3804ZM25.3942 13.6745L27.1846 12.4149L27.0597 12.2374L25.2694 13.4971L25.3942 13.6745ZM25.4403 14.8656V13.5858H25.2234V14.8656H25.4403ZM26.4201 15.0702C26.0749 14.9775 25.723 14.8746 25.3643 14.7621L25.2994 14.9691C25.6607 15.0823 26.0154 15.1861 26.3639 15.2797L26.4201 15.0702ZM26.2836 14.8564L26.2836 15.175L26.5005 15.175L26.5005 14.8564L26.2836 14.8564ZM26.7597 15.1851L26.4803 14.7934L26.3037 14.9194L26.5831 15.3111L26.7597 15.1851ZM39.9033 7.87174C38.0299 11.5603 36.1218 13.7282 33.9943 14.8004C31.8695 15.8713 29.5061 15.8592 26.6982 15.143L26.6446 15.3532C29.4788 16.0761 31.9019 16.0979 34.0919 14.9941C36.2791 13.8918 38.2142 11.6764 40.0967 7.96997L39.9033 7.87174ZM24.6085 14.0184V14.6629H24.8254V14.0184H24.6085ZM24.734 14.1389L24.7793 14.1071L24.6545 13.9297L24.6092 13.9615L24.734 14.1389ZM24.764 14.5652C24.5994 14.4858 24.575 14.2508 24.734 14.1389L24.6092 13.9615C24.3147 14.1687 24.3563 14.6094 24.6698 14.7606L24.764 14.5652ZM28.0045 11.6295L28.0072 12.2819L28.2241 12.281L28.2214 11.6286L28.0045 11.6295ZM28.0429 11.811L28.1754 11.7178L28.0505 11.5404L27.918 11.6336L28.0429 11.811ZM28.2148 12.2375C28.1441 12.0777 28.1062 11.8986 28.0884 11.712L27.8725 11.7326C27.8917 11.9339 27.9333 12.1376 28.0165 12.3254L28.2148 12.2375ZM32.1792 12.3865C32.2321 12.2699 32.323 12.1654 32.4555 12.0774L32.3354 11.8967C32.1747 12.0036 32.0539 12.1376 31.9816 12.2969L32.1792 12.3865ZM32.1399 12.8928C32.1119 12.7548 32.0999 12.5617 32.1792 12.3864L31.9816 12.2969C31.8753 12.5319 31.8953 12.7777 31.9273 12.9359L32.1399 12.8928ZM32.1433 12.9095L32.1399 12.8929L31.9273 12.9358L31.9307 12.9525L32.1433 12.9095ZM32.9871 12.7226L32.0257 12.8231L32.0483 13.0389L33.0097 12.9383L32.9871 12.7226ZM32.3112 12.0468L32.9099 12.8931L33.087 12.7678L32.4883 11.9215L32.3112 12.0468ZM32.4563 12.0768L32.4606 12.0739L32.3389 11.8944L32.3346 11.8973L32.4563 12.0768ZM30.8998 10.9804C30.8259 11.1276 30.8152 11.2752 30.8219 11.3831C30.8252 11.4374 30.833 11.483 30.8401 11.5154C30.8436 11.5317 30.847 11.5448 30.8496 11.5542C30.851 11.5589 30.8521 11.5627 30.853 11.5655C30.8534 11.5669 30.8538 11.568 30.854 11.5689C30.8542 11.5694 30.8543 11.5698 30.8544 11.5701C30.8545 11.5702 30.8545 11.5704 30.8546 11.5705C30.8546 11.5706 30.8546 11.5706 30.8546 11.5707C30.8546 11.5707 30.8547 11.5708 30.8547 11.5708C30.8547 11.5708 30.8547 11.5709 30.9575 11.5364C31.0604 11.502 31.0604 11.5021 31.0604 11.5021C31.0604 11.5021 31.0604 11.5022 31.0604 11.5022C31.0605 11.5022 31.0605 11.5023 31.0605 11.5023C31.0605 11.5024 31.0605 11.5024 31.0605 11.5024C31.0606 11.5025 31.0606 11.5025 31.0605 11.5025C31.0605 11.5024 31.0604 11.5021 31.0602 11.5015C31.0599 11.5004 31.0593 11.4985 31.0585 11.4956C31.0569 11.4899 31.0546 11.481 31.052 11.4692C31.0468 11.4455 31.0409 11.4111 31.0384 11.3698C31.0333 11.2865 31.0422 11.1803 31.0937 11.0776L30.8998 10.9804ZM31.2294 10.6465C31.0652 10.739 30.9615 10.8571 30.8997 10.9805L31.0937 11.0775C31.1356 10.9938 31.2085 10.9073 31.3359 10.8355L31.2294 10.6465ZM32.376 11.7643L31.3623 10.6674L31.203 10.8146L32.2166 11.9115L32.376 11.7643ZM32.1684 12.0859C32.2193 12.0312 32.2812 11.9781 32.3563 11.9283L32.2363 11.7476C32.1476 11.8064 32.0727 11.8704 32.0097 11.9379L32.1684 12.0859ZM32.0586 12.2314C32.0881 12.1821 32.1244 12.1333 32.1686 12.0857L32.0095 11.9382C31.9554 11.9966 31.9099 12.0574 31.8725 12.1199L32.0586 12.2314ZM31.9942 12.367C32.0112 12.3209 32.0322 12.2755 32.0587 12.2312L31.8724 12.12C31.8384 12.177 31.8118 12.2346 31.7907 12.2919L31.9942 12.367ZM31.9521 12.526C31.9608 12.4734 31.9745 12.4201 31.9942 12.3671L31.7907 12.2918C31.7661 12.3582 31.7489 12.425 31.7381 12.4907L31.9521 12.526ZM31.9401 12.7198C31.9383 12.6565 31.9414 12.5916 31.9521 12.5259L31.738 12.4909C31.7247 12.5725 31.7211 12.6515 31.7233 12.7262L31.9401 12.7198ZM31.9644 12.9283C31.9516 12.8649 31.9424 12.7941 31.9401 12.7198L31.7233 12.7262C31.7259 12.8141 31.7368 12.8973 31.7518 12.9713L31.9644 12.9283ZM30.3713 13.0608L31.8583 13.0583L31.8579 12.8413L30.3709 12.8439L30.3713 13.0608ZM30.232 12.5584C30.1917 12.7159 30.2186 12.8659 30.2706 12.9933L30.4715 12.9113C30.4318 12.8141 30.4164 12.7128 30.4421 12.6121L30.232 12.5584ZM30.5956 12.088C30.3892 12.2313 30.2746 12.3914 30.2319 12.5584L30.4421 12.6121C30.4689 12.5073 30.5446 12.3874 30.7193 12.2662L30.5956 12.088ZM30.5781 11.7242C30.5081 11.8498 30.504 11.9752 30.5161 12.0659C30.5222 12.1114 30.5324 12.1493 30.5412 12.1763C30.5457 12.1899 30.5499 12.2009 30.5531 12.2088C30.5547 12.2128 30.5561 12.2161 30.5572 12.2185C30.5577 12.2198 30.5582 12.2208 30.5586 12.2216C30.5588 12.2221 30.5589 12.2224 30.5591 12.2227C30.5592 12.2229 30.5592 12.223 30.5593 12.2232C30.5593 12.2232 30.5593 12.2233 30.5594 12.2234C30.5594 12.2234 30.5594 12.2234 30.5594 12.2234C30.5594 12.2235 30.5595 12.2235 30.6575 12.1771C30.7555 12.1306 30.7555 12.1307 30.7555 12.1307C30.7555 12.1307 30.7555 12.1308 30.7555 12.1308C30.7556 12.1308 30.7556 12.1309 30.7556 12.1309C30.7556 12.131 30.7557 12.1311 30.7557 12.1311C30.7558 12.1312 30.7558 12.1313 30.7558 12.1313C30.7558 12.1314 30.7558 12.1313 30.7557 12.131C30.7554 12.1304 30.7549 12.1291 30.7541 12.1272C30.7525 12.1234 30.7501 12.1171 30.7473 12.1087C30.7418 12.0917 30.7351 12.067 30.7311 12.0373C30.7232 11.9776 30.7268 11.9029 30.7676 11.8298L30.5781 11.7242ZM30.9123 11.4378C30.745 11.5145 30.6393 11.6147 30.5782 11.7241L30.7675 11.8299C30.8027 11.767 30.8702 11.6958 31.0027 11.635L30.9123 11.4378ZM30.5592 12.0153L30.5585 11.9998L30.3418 12.0101L30.3425 12.0256L30.5592 12.0153Z" fill="#CEEBE5" mask="url(#path-1-inside-1_419_1231)"/>
</svg>
