<svg width="25" height="17" viewBox="0 0 25 17" fill="none" xmlns="http://www.w3.org/2000/svg">
<path d="M0 2.5C0 1.39543 0.895431 0.5 2 0.5H23C24.1046 0.5 25 1.39543 25 2.5C25 3.60457 24.1046 4.5 23 4.5H12.5H2C0.89543 4.5 0 3.60457 0 2.5Z" fill="#B9DED6"/>
<path d="M0 8.5C0 7.39543 0.895431 6.5 2 6.5H23C24.1046 6.5 25 7.39543 25 8.5C25 9.60457 24.1046 10.5 23 10.5H2C0.89543 10.5 0 9.60457 0 8.5Z" fill="#B9DED6"/>
<path d="M0 14.5C0 13.3954 0.895431 12.5 2 12.5H23C24.1046 12.5 25 13.3954 25 14.5C25 15.6046 24.1046 16.5 23 16.5H2C0.89543 16.5 0 15.6046 0 14.5Z" fill="#B9DED6"/>
</svg>
