<svg width="26" height="17" viewBox="0 0 26 17" fill="none" xmlns="http://www.w3.org/2000/svg">
<path d="M0.5 2.5C0.5 1.39543 1.39543 0.5 2.5 0.5H23.5C24.6046 0.5 25.5 1.39543 25.5 2.5C25.5 3.60457 24.6046 4.5 23.5 4.5H13H2.5C1.39543 4.5 0.5 3.60457 0.5 2.5Z" fill="white"/>
<path d="M0.5 8.5C0.5 7.39543 1.39543 6.5 2.5 6.5H23.5C24.6046 6.5 25.5 7.39543 25.5 8.5C25.5 9.60457 24.6046 10.5 23.5 10.5H2.5C1.39543 10.5 0.5 9.60457 0.5 8.5Z" fill="white"/>
<path d="M0.5 14.5C0.5 13.3954 1.39543 12.5 2.5 12.5H23.5C24.6046 12.5 25.5 13.3954 25.5 14.5C25.5 15.6046 24.6046 16.5 23.5 16.5H2.5C1.39543 16.5 0.5 15.6046 0.5 14.5Z" fill="white"/>
</svg>
