<svg width="25" height="26" viewBox="0 0 25 26" fill="none" xmlns="http://www.w3.org/2000/svg">
<g clip-path="url(#clip0_419_1354)">
<path d="M12.5 2.32617C15.8398 2.32617 16.2354 2.34082 17.5488 2.39941C18.7695 2.45312 19.4287 2.6582 19.8682 2.8291C20.4492 3.05371 20.8691 3.32715 21.3037 3.76172C21.7432 4.20117 22.0117 4.61621 22.2363 5.19727C22.4072 5.63672 22.6123 6.30078 22.666 7.5166C22.7246 8.83496 22.7393 9.23047 22.7393 12.5654C22.7393 15.9053 22.7246 16.3008 22.666 17.6143C22.6123 18.835 22.4072 19.4941 22.2363 19.9336C22.0117 20.5147 21.7383 20.9346 21.3037 21.3691C20.8643 21.8086 20.4492 22.0772 19.8682 22.3018C19.4287 22.4727 18.7646 22.6777 17.5488 22.7314C16.2305 22.79 15.835 22.8047 12.5 22.8047C9.16016 22.8047 8.76465 22.79 7.45117 22.7314C6.23047 22.6777 5.57129 22.4727 5.13184 22.3018C4.55078 22.0772 4.13086 21.8037 3.69629 21.3691C3.25684 20.9297 2.98828 20.5147 2.76367 19.9336C2.59277 19.4941 2.3877 18.8301 2.33398 17.6143C2.27539 16.2959 2.26074 15.9004 2.26074 12.5654C2.26074 9.22559 2.27539 8.83008 2.33398 7.5166C2.3877 6.2959 2.59277 5.63672 2.76367 5.19727C2.98828 4.61621 3.26172 4.19629 3.69629 3.76172C4.13574 3.32227 4.55078 3.05371 5.13184 2.8291C5.57129 2.6582 6.23535 2.45312 7.45117 2.39941C8.76465 2.34082 9.16016 2.32617 12.5 2.32617ZM12.5 0.0751953C9.10645 0.0751953 8.68164 0.0898437 7.34863 0.148438C6.02051 0.207031 5.10742 0.421875 4.31641 0.729492C3.49121 1.05176 2.79297 1.47656 2.09961 2.1748C1.40137 2.86816 0.976562 3.56641 0.654297 4.38672C0.34668 5.18262 0.131836 6.09082 0.0732422 7.41895C0.0146484 8.75684 0 9.18164 0 12.5752C0 15.9688 0.0146484 16.3936 0.0732422 17.7266C0.131836 19.0547 0.34668 19.9678 0.654297 20.7588C0.976562 21.584 1.40137 22.2822 2.09961 22.9756C2.79297 23.6689 3.49121 24.0986 4.31152 24.416C5.10742 24.7236 6.01562 24.9385 7.34375 24.9971C8.67676 25.0557 9.10156 25.0703 12.4951 25.0703C15.8887 25.0703 16.3135 25.0557 17.6465 24.9971C18.9746 24.9385 19.8877 24.7236 20.6787 24.416C21.499 24.0986 22.1973 23.6689 22.8906 22.9756C23.584 22.2822 24.0137 21.584 24.3311 20.7637C24.6387 19.9678 24.8535 19.0596 24.9121 17.7314C24.9707 16.3984 24.9854 15.9736 24.9854 12.5801C24.9854 9.18652 24.9707 8.76172 24.9121 7.42871C24.8535 6.10059 24.6387 5.1875 24.3311 4.39648C24.0234 3.56641 23.5986 2.86816 22.9004 2.1748C22.207 1.48145 21.5088 1.05176 20.6885 0.734375C19.8926 0.426758 18.9844 0.211914 17.6563 0.15332C16.3184 0.0898438 15.8936 0.0751953 12.5 0.0751953Z" fill="#B9DED6"/>
<path d="M12.5 6.1543C8.95508 6.1543 6.0791 9.03027 6.0791 12.5752C6.0791 16.1201 8.95508 18.9961 12.5 18.9961C16.0449 18.9961 18.9209 16.1201 18.9209 12.5752C18.9209 9.03027 16.0449 6.1543 12.5 6.1543ZM12.5 16.7402C10.2002 16.7402 8.33496 14.875 8.33496 12.5752C8.33496 10.2754 10.2002 8.41016 12.5 8.41016C14.7998 8.41016 16.665 10.2754 16.665 12.5752C16.665 14.875 14.7998 16.7402 12.5 16.7402Z" fill="#B9DED6"/>
<path d="M20.6738 5.90039C20.6738 6.73047 20 7.39942 19.1748 7.39942C18.3447 7.39942 17.6758 6.72559 17.6758 5.90039C17.6758 5.07031 18.3496 4.40137 19.1748 4.40137C20 4.40137 20.6738 5.0752 20.6738 5.90039Z" fill="#B9DED6"/>
</g>
<defs>
<clipPath id="clip0_419_1354">
<rect width="25" height="25" fill="white" transform="translate(0 0.0751953)"/>
</clipPath>
</defs>
</svg>
