<svg width="180" height="17" viewBox="0 0 180 17" fill="none" xmlns="http://www.w3.org/2000/svg">
<path d="M0 14.8693L7.12465 7.4506L0.537333 0.253068H6.04998L10.5477 5.3798L15.0851 0.253068H20.4187L14.0304 7.4506L20.9759 14.8693H15.2842L10.5477 9.74256L5.75146 14.8693H0Z" fill="#B9DED6"/>
<path d="M39.2187 3.76974L27.0341 3.81163V6.02316L39.2187 6.07342V9.00537L27.0341 9.0992V11.3308H39.2187V14.8693H22.6161V0.253068L39.2187 0.418932V3.76974Z" fill="#B9DED6"/>
<path d="M46.4744 11.3309H57.2542V14.8693L41.7064 15.0352V0.418971H46.4744V11.3309Z" fill="#B9DED6"/>
<path d="M77.3404 1.90028C77.3044 1.91735 77.2692 1.9358 77.2349 1.95557L62.5926 12.5332L81.7344 12.6035L79.8637 10.9836V9.67179L84.1624 12.6121L84.1624 12.7026V14.0601L81.7444 14.0597V14.0511L60.2486 13.9721C59.8539 13.9704 59.5347 13.6471 59.5347 13.2483C59.5347 12.952 59.7107 12.6974 59.9627 12.5854L60.8216 12.0467L60.827 12.0545L76.7741 0.489316L76.7754 0.491141L77.1787 0.172646C77.4261 -0.0225874 77.7509 -0.0489015 78.0171 0.0768073C78.0931 0.106608 78.1659 0.14866 78.2327 0.203254L78.8138 0.678815L93.5201 11.3246C93.8775 11.5834 93.8153 12.1376 93.4099 12.3093C93.2295 12.3855 93.023 12.3617 92.8646 12.2465L78.7204 1.95743C78.6729 1.92806 78.6238 1.90149 78.5731 1.87797C78.3916 1.79961 78.1918 1.75611 77.9831 1.75636C77.9474 1.75636 77.912 1.7576 77.877 1.76004C77.6874 1.77748 77.5061 1.82584 77.3404 1.90028Z" fill="#B9DED6"/>
<path d="M85.1476 13.4268L84.1624 14.0601L84.1624 12.6121L85.1476 13.4268Z" fill="#B9DED6"/>
<path d="M79.8637 15.6882V17L84.1624 14.0601L81.7444 14.0597L79.8637 15.6882Z" fill="#B9DED6"/>
<path d="M102.794 14.8693H97.4713L91.2521 0.418971H96.4348L100.505 10.6473L103.483 3.1415H109.54L111.769 10.6473L116.751 0.418971H121.104L114.515 14.8693H109.54L106.385 5.86403L102.794 14.8693Z" fill="#B9DED6"/>
<path d="M122.811 15.0352H117.994L125.895 0.418971H133.04L141.42 14.8693L136.652 15.0352L134.433 12.6025H124.223L122.811 15.0352ZM125.895 9.08415H133.04L129.396 3.1415L125.895 9.08415Z" fill="#B9DED6"/>
<path d="M154.027 0.253068C158.406 0.253068 159.958 1.23821 159.958 5.03803C159.958 7.45061 159.361 8.65689 157.55 9.0992C159.062 9.46108 159.839 10.3859 159.839 11.8737V14.8693H155.42V12.6376C155.42 11.3911 154.883 11.1298 153.43 11.1298H146.843V14.8693H142.405V0.253068H154.027ZM153.868 3.89204H146.843V7.47071H153.868C155.102 7.47071 155.46 6.92787 155.46 5.54064C155.46 4.41477 155.003 3.89204 153.868 3.89204Z" fill="#B9DED6"/>
<path d="M179.149 3.97753H166.786V6.18906H179.149V9.09924L166.786 9.2651V11.4967H179.149V15.0352H162.368V0.418971L179.149 0.628396V3.97753Z" fill="#B9DED6"/>
</svg>
