<svg width="37" height="36" viewBox="0 0 37 36" fill="none" xmlns="http://www.w3.org/2000/svg">
<path d="M36.5028 1.23673L35.6644 7.54397C33.5811 7.39199 32.006 7.79727 30.9389 8.75982C29.8719 9.72237 29.1859 11.0395 28.8811 12.7113C28.5762 14.3831 28.5 16.2322 28.6524 18.2587H36.5028V35.4326H21.5642V15.9789C21.5642 10.6596 22.8599 6.65741 25.4513 3.9724C28.0935 1.23673 31.7773 0.324845 36.5028 1.23673ZM15.0858 1.23673L14.2474 7.54397C12.1641 7.39199 10.589 7.79727 9.52193 8.75982C8.45489 9.72237 7.76893 11.0395 7.46406 12.7113C7.15919 14.3831 7.08298 16.2322 7.23541 18.2587H15.0858V35.4326H0.147217V15.9789C0.147217 10.6596 1.44291 6.65741 4.03429 3.9724C6.67649 1.23673 10.3603 0.324845 15.0858 1.23673Z" fill="#B9DED6"/>
</svg>
