<svg width="27" height="27" viewBox="0 0 27 27" fill="none" xmlns="http://www.w3.org/2000/svg">
<path d="M10.9227 1.00003C10.7707 0.998535 10.6234 1.05235 10.5082 1.15145C10.3929 1.25055 10.3177 1.38817 10.2964 1.53866L9.81413 4.93955C9.04032 5.26094 8.3118 5.68205 7.64708 6.19218L4.44035 4.9145C4.2987 4.85697 4.14091 4.85323 3.9967 4.90399C3.85249 4.95475 3.73183 5.05651 3.65745 5.19008L1.08956 9.64318C1.01015 9.77525 0.982216 9.93196 1.0111 10.0833C1.03999 10.2347 1.12367 10.3701 1.24614 10.4637L3.95182 12.5869C3.89747 13.0023 3.86819 13.4206 3.86414 13.8395C3.86798 14.2584 3.89726 14.6767 3.95182 15.0921L1.24614 17.2153C1.12367 17.3089 1.03999 17.4443 1.0111 17.5957C0.982216 17.747 1.01015 17.9037 1.08956 18.0358L3.65745 22.4889C3.73183 22.6225 3.85249 22.7242 3.9967 22.775C4.14091 22.8258 4.2987 22.822 4.44035 22.7645L7.45919 21.5119L11.2609 15.2049L5.98108 11.4094L17.8811 5.28403C17.6431 5.15876 17.4051 5.04603 17.1546 4.93955L16.6723 1.53866C16.6452 1.39082 16.5682 1.25674 16.4543 1.15874C16.3403 1.06073 16.1962 1.00472 16.046 1.00003H10.9227ZM22.7726 4.87066C22.6975 4.87201 22.6232 4.88686 22.5534 4.9145L19.5346 6.13582L15.7328 12.4428L21.0127 16.2696L9.11266 22.395C9.35066 22.5202 9.58866 22.633 9.83919 22.7394L10.3214 26.1403C10.3427 26.2908 10.418 26.4284 10.5332 26.5275C10.6485 26.6266 10.7958 26.6805 10.9478 26.679H16.0836C16.2355 26.6805 16.3829 26.6266 16.4981 26.5275C16.6133 26.4284 16.6886 26.2908 16.7099 26.1403L17.1921 22.7394C17.9659 22.418 18.6945 21.9969 19.3592 21.4868L22.5597 22.777C22.7013 22.8345 22.8591 22.8383 23.0033 22.7875C23.1475 22.7368 23.2682 22.635 23.3425 22.5014L25.9104 18.0483C25.9899 17.9163 26.0178 17.7596 25.9889 17.6082C25.96 17.4568 25.8763 17.3214 25.7539 17.2279L23.0357 15.0921C23.0902 14.6767 23.1195 14.2584 23.1233 13.8395C23.1195 13.4206 23.0902 13.0022 23.0357 12.5869L25.7476 10.4637C25.8701 10.3701 25.9537 10.2347 25.9826 10.0833C26.0115 9.93196 25.9836 9.77525 25.9042 9.64318L23.3363 5.19008C23.2804 5.09051 23.1983 5.00812 23.099 4.95182C22.9996 4.89552 22.8868 4.86746 22.7726 4.87066Z" stroke="#F44336" stroke-width="0.626315" stroke-linecap="round" stroke-linejoin="round"/>
</svg>
