<svg width="25" height="25" viewBox="0 0 25 25" fill="none" xmlns="http://www.w3.org/2000/svg">
<path d="M12.5 0L0 6.37388C0 8.69204 0.249104 10.7165 0.666544 12.5C3.2462 23.5215 12.5 25 12.5 25C12.5 25 21.7537 23.5215 24.3335 12.5C24.7509 10.7165 25 8.69209 25 6.37388L12.5 0ZM12.5065 22.7892C12.5046 22.7886 12.502 22.7878 12.5 22.7873V20.4596V12.5H6.12975H3.38507C3.01634 11.0479 2.77093 9.39912 2.6999 7.52295L12.4999 2.52578H12.5V5.05166V12.5H18.8725H21.6159C19.6666 20.1857 14.2318 22.3034 12.5065 22.7892Z" fill="#F44336"/>
</svg>
