<svg width="25" height="26" viewBox="0 0 25 26" fill="none" xmlns="http://www.w3.org/2000/svg">
<path d="M0 25.0751L1.75729 18.6554C0.672915 16.7762 0.103125 14.646 0.104166 12.4616C0.107291 5.63247 5.66457 0.0751953 12.4927 0.0751953C15.8062 0.076237 18.9166 1.36686 21.2562 3.70852C23.5947 6.05018 24.8822 9.16268 24.8812 12.4731C24.8781 19.3033 19.3208 24.8606 12.4927 24.8606C10.4198 24.8595 8.37706 24.3397 6.56769 23.3522L0 25.0751ZM6.87186 21.1095C8.61769 22.146 10.2844 22.7668 12.4885 22.7679C18.1635 22.7679 22.7864 18.1491 22.7895 12.471C22.7916 6.78143 18.1906 2.16894 12.4968 2.16686C6.81769 2.16686 2.19791 6.7856 2.19583 12.4627C2.19479 14.7804 2.87395 16.5158 4.01457 18.3314L2.97395 22.1314L6.87186 21.1095ZM18.7333 15.4179C18.6562 15.2887 18.45 15.2116 18.1395 15.0564C17.8302 14.9012 16.3083 14.1522 16.0239 14.0491C15.7406 13.946 15.5343 13.8939 15.327 14.2043C15.1208 14.5137 14.5271 15.2116 14.3468 15.4179C14.1666 15.6241 13.9854 15.6502 13.676 15.495C13.3666 15.3397 12.3687 15.0137 11.1864 13.9585C10.2666 13.1377 9.64477 12.1241 9.46456 11.8137C9.28435 11.5043 9.44581 11.3366 9.59998 11.1825C9.73956 11.0439 9.90935 10.821 10.0646 10.6398C10.2219 10.4606 10.2729 10.3314 10.3771 10.1241C10.4802 9.91788 10.4291 9.73663 10.351 9.58142C10.2729 9.42726 9.65415 7.9033 9.39685 7.28351C9.14477 6.68039 8.88956 6.76164 8.69998 6.75226L8.10623 6.74185C7.89998 6.74185 7.56457 6.81893 7.28123 7.12935C6.9979 7.43976 6.1979 8.18768 6.1979 9.71163C6.1979 11.2356 7.30728 12.7075 7.46144 12.9137C7.61665 13.12 9.64373 16.247 12.7489 17.5877C13.4875 17.9064 14.0646 18.097 14.5135 18.2397C15.2552 18.4752 15.9302 18.4418 16.4635 18.3627C17.0583 18.2741 18.2948 17.6137 18.5531 16.8908C18.8114 16.1668 18.8114 15.547 18.7333 15.4179Z" fill="#B9DED6"/>
</svg>
